<?xml version="1.0" standalone="no"?>
<!DOCTYPE svg PUBLIC "-//W3C//DTD SVG 1.1//EN" "http://www.w3.org/Graphics/SVG/1.1/DTD/svg11.dtd" >
<svg xmlns="http://www.w3.org/2000/svg" xmlns:xlink="http://www.w3.org/1999/xlink" version="1.1">
<metadata>
Created by FontForge 20170924 at Thu May 14 11:39:55 2015
 By www-data
Copyright (c) 2014 by Mattox Shuler. All rights reserved.
</metadata>
<defs>
<font id="Factoria-Bold" horiz-adv-x="660" >
  <font-face 
    font-family="Factoria Bold"
    font-weight="700"
    font-stretch="normal"
    units-per-em="1000"
    panose-1="0 0 8 0 0 0 0 0 0 0"
    ascent="800"
    descent="-200"
    x-height="540"
    cap-height="700"
    bbox="-265 -350 1016 946"
    underline-thickness="50"
    underline-position="-100"
    stemh="132"
    stemv="144"
    unicode-range="U+0020-FB02"
  />
<missing-glyph horiz-adv-x="336" 
 />
    <glyph glyph-name="fi" unicode="fi" horiz-adv-x="753" 
d="M115 600c0 89 41 130 130 130h124v-104h-94c-16 0 -22 -6 -22 -22v-64h108v-112h-108v-326h88v-102h-314v102h88v326h-87v112h87v60zM645 730v-130h-146v130h146zM641 102h76v-102h-294v102h80v336h-80v102h218v-438z" />
    <glyph glyph-name="fl" unicode="fl" horiz-adv-x="753" 
d="M115 600c0 89 41 130 130 130h124v-104h-94c-16 0 -22 -6 -22 -22v-64h108v-112h-108v-326h88v-102h-314v102h88v326h-87v112h87v60zM641 102h76v-102h-294v102h80v526h-80v102h218v-628z" />
    <glyph glyph-name=".notdef" horiz-adv-x="336" 
 />
    <glyph glyph-name="space" unicode=" " horiz-adv-x="264" 
 />
    <glyph glyph-name="A" unicode="A" horiz-adv-x="784" 
d="M688 118h76v-118h-302v118h74l-29 92h-234l-29 -92h72v-118h-296v118h76l159 464h-80v118h314zM311 330h158l-79 246z" />
    <glyph glyph-name="Aacute" unicode="&#xc1;" horiz-adv-x="784" 
d="M579 910l-149 -144h-116l90 144h175zM688 118h76v-118h-302v118h74l-29 92h-234l-29 -92h72v-118h-296v118h76l159 464h-80v118h314zM311 330h158l-79 246z" />
    <glyph glyph-name="Abreve" unicode="&#x102;" horiz-adv-x="784" 
d="M350 766c-55 0 -80 25 -80 80v55h84v-43c0 -14 4 -18 18 -18h34c14 0 18 4 18 18v43h84v-55c0 -55 -25 -80 -80 -80h-78zM688 118h76v-118h-302v118h74l-29 92h-234l-29 -92h72v-118h-296v118h76l159 464h-80v118h314zM311 330h158l-79 246z" />
    <glyph glyph-name="Acircumflex" unicode="&#xc2;" horiz-adv-x="784" 
d="M389 829l-61 -63h-129l130 130h120l130 -130h-129zM688 118h76v-118h-302v118h74l-29 92h-234l-29 -92h72v-118h-296v118h76l159 464h-80v118h314zM311 330h158l-79 246z" />
    <glyph glyph-name="Adieresis" unicode="&#xc4;" horiz-adv-x="784" 
d="M353 894v-128h-130v128h130zM555 894v-128h-130v128h130zM688 118h76v-118h-302v118h74l-29 92h-234l-29 -92h72v-118h-296v118h76l159 464h-80v118h314zM311 330h158l-79 246z" />
    <glyph glyph-name="Agrave" unicode="&#xc0;" horiz-adv-x="784" 
d="M464 766h-116l-149 144h175zM688 118h76v-118h-302v118h74l-29 92h-234l-29 -92h72v-118h-296v118h76l159 464h-80v118h314zM311 330h158l-79 246z" />
    <glyph glyph-name="Amacron" unicode="&#x100;" horiz-adv-x="784" 
d="M527 888v-112h-276v112h276zM688 118h76v-118h-302v118h74l-29 92h-234l-29 -92h72v-118h-296v118h76l159 464h-80v118h314zM311 330h158l-79 246z" />
    <glyph glyph-name="Aogonek" unicode="&#x104;" horiz-adv-x="784" 
d="M688 118h76v-118h-64c-41 -23 -52 -44 -52 -61c0 -18 12 -26 32 -26h39v-93h-68c-67 0 -111 19 -111 79c0 52 33 82 57 101h-135v118h74l-29 92h-234l-29 -92h72v-118h-296v118h76l159 464h-80v118h314zM311 330h158l-79 246z" />
    <glyph glyph-name="Aring" unicode="&#xc5;" horiz-adv-x="784" 
d="M353 766c-42 0 -60 18 -60 60v60c0 42 18 60 60 60h72c42 0 60 -18 60 -60v-60c0 -42 -18 -60 -60 -60h-72zM355 878v-44c0 -10 2 -12 12 -12h44c10 0 12 2 12 12v44c0 10 -2 12 -12 12h-44c-10 0 -12 -2 -12 -12zM688 118h76v-118h-302v118h74l-29 92h-234l-29 -92h72
v-118h-296v118h76l159 464h-80v118h314zM311 330h158l-79 246z" />
    <glyph glyph-name="Atilde" unicode="&#xc3;" horiz-adv-x="784" 
d="M300 783v-19h-74v25c0 77 38 112 84 112c60 0 101 -46 143 -46c14 0 21 7 21 21v19h76v-25c0 -77 -32 -112 -78 -112c-55 0 -107 46 -149 46c-14 0 -23 -4 -23 -21zM688 118h76v-118h-302v118h74l-29 92h-234l-29 -92h72v-118h-296v118h76l159 464h-80v118h314zM311 330
h158l-79 246z" />
    <glyph glyph-name="AE" unicode="&#xc6;" horiz-adv-x="1039" 
d="M982 700v-216h-126v94h-201v-158h245v-130h-245v-168h201v94h126v-216h-559v118h88v92h-225l-46 -92h78v-118h-316v118h78l241 464h-76v118h737zM349 338h162v228h-50z" />
    <glyph glyph-name="B" unicode="B" horiz-adv-x="694" 
d="M124 118v464h-88v118h458c95 0 140 -45 140 -187c0 -87 -17 -128 -63 -155c50 -24 71 -62 71 -163c0 -150 -45 -195 -140 -195h-466v118h88zM268 423h192c25 0 30 6 30 75s-5 74 -30 74h-192v-149zM268 128h200c25 0 30 5 30 87s-5 86 -30 86h-200v-173z" />
    <glyph glyph-name="C" unicode="C" horiz-adv-x="646" 
d="M208 0c-95 0 -140 45 -140 140v420c0 95 45 140 140 140h240c95 0 140 -45 140 -140v-114h-144v102c0 15 -5 20 -20 20h-192c-15 0 -20 -5 -20 -20v-396c0 -15 5 -20 20 -20h192c15 0 20 5 20 20v102h144v-114c0 -95 -45 -140 -140 -140h-240z" />
    <glyph glyph-name="Cacute" unicode="&#x106;" horiz-adv-x="646" 
d="M519 910l-149 -144h-116l90 144h175zM208 0c-95 0 -140 45 -140 140v420c0 95 45 140 140 140h240c95 0 140 -45 140 -140v-114h-144v102c0 15 -5 20 -20 20h-192c-15 0 -20 -5 -20 -20v-396c0 -15 5 -20 20 -20h192c15 0 20 5 20 20v102h144v-114
c0 -95 -45 -140 -140 -140h-240z" />
    <glyph glyph-name="Ccaron" unicode="&#x10c;" horiz-adv-x="646" 
d="M139 896l130 -130h120l130 130h-129l-61 -63l-61 63h-129zM208 0c-95 0 -140 45 -140 140v420c0 95 45 140 140 140h240c95 0 140 -45 140 -140v-114h-144v102c0 15 -5 20 -20 20h-192c-15 0 -20 -5 -20 -20v-396c0 -15 5 -20 20 -20h192c15 0 20 5 20 20v102h144v-114
c0 -95 -45 -140 -140 -140h-240z" />
    <glyph glyph-name="Ccedilla" unicode="&#xc7;" horiz-adv-x="646" 
d="M588 446h-144v102c0 15 -5 20 -20 20h-192c-15 0 -20 -5 -20 -20v-396c0 -15 5 -20 20 -20h192c15 0 20 5 20 20v102h144v-114c0 -95 -45 -140 -140 -140h-67v-73c0 -74 -32 -94 -94 -94h-75l-50 78h95c15 0 20 5 20 20v69h-69c-95 0 -140 45 -140 140v420
c0 95 45 140 140 140h240c95 0 140 -45 140 -140v-114z" />
    <glyph glyph-name="Cdotaccent" unicode="&#x10a;" horiz-adv-x="646" 
d="M394 894v-128h-130v128h130zM208 0c-95 0 -140 45 -140 140v420c0 95 45 140 140 140h240c95 0 140 -45 140 -140v-114h-144v102c0 15 -5 20 -20 20h-192c-15 0 -20 -5 -20 -20v-396c0 -15 5 -20 20 -20h192c15 0 20 5 20 20v102h144v-114c0 -95 -45 -140 -140 -140h-240
z" />
    <glyph glyph-name="D" unicode="D" horiz-adv-x="715" 
d="M36 0v118h88v464h-88v118h471c95 0 140 -45 140 -140v-420c0 -95 -45 -140 -140 -140h-471zM268 132h215c15 0 20 5 20 20v396c0 15 -5 20 -20 20h-215v-436z" />
    <glyph glyph-name="Eth" unicode="&#xd0;" horiz-adv-x="715" 
d="M507 700c95 0 140 -45 140 -140v-420c0 -95 -45 -140 -140 -140h-471v118h88v172h-72v144h72v148h-88v118h471zM503 152v396c0 15 -5 20 -20 20h-215v-134h72v-144h-72v-158h215c15 0 20 5 20 20z" />
    <glyph glyph-name="Dcaron" unicode="&#x10e;" horiz-adv-x="715" 
d="M173 896l130 -130h120l130 130h-129l-61 -63l-61 63h-129zM36 0v118h88v464h-88v118h471c95 0 140 -45 140 -140v-420c0 -95 -45 -140 -140 -140h-471zM268 132h215c15 0 20 5 20 20v396c0 15 -5 20 -20 20h-215v-436z" />
    <glyph glyph-name="Dcroat" unicode="&#x110;" horiz-adv-x="715" 
d="M507 700c95 0 140 -45 140 -140v-420c0 -95 -45 -140 -140 -140h-471v118h88v172h-72v144h72v148h-88v118h471zM503 152v396c0 15 -5 20 -20 20h-215v-134h72v-144h-72v-158h215c15 0 20 5 20 20z" />
    <glyph glyph-name="E" unicode="E" horiz-adv-x="652" 
d="M595 484h-126v94h-201v-158h245v-130h-245v-168h201v94h126v-216h-559v118h88v464h-88v118h559v-216z" />
    <glyph glyph-name="Eacute" unicode="&#xc9;" horiz-adv-x="652" 
d="M531 910l-149 -144h-116l90 144h175zM595 484h-126v94h-201v-158h245v-130h-245v-168h201v94h126v-216h-559v118h88v464h-88v118h559v-216z" />
    <glyph glyph-name="Ecaron" unicode="&#x11a;" horiz-adv-x="652" 
d="M401 766h-120l-130 130h129l61 -63l61 63h129zM595 484h-126v94h-201v-158h245v-130h-245v-168h201v94h126v-216h-559v118h88v464h-88v118h559v-216z" />
    <glyph glyph-name="Ecircumflex" unicode="&#xca;" horiz-adv-x="652" 
d="M341 829l-61 -63h-129l130 130h120l130 -130h-129zM595 484h-126v94h-201v-158h245v-130h-245v-168h201v94h126v-216h-559v118h88v464h-88v118h559v-216z" />
    <glyph glyph-name="Edieresis" unicode="&#xcb;" horiz-adv-x="652" 
d="M305 894v-128h-130v128h130zM507 894v-128h-130v128h130zM595 484h-126v94h-201v-158h245v-130h-245v-168h201v94h126v-216h-559v118h88v464h-88v118h559v-216z" />
    <glyph glyph-name="Edotaccent" unicode="&#x116;" horiz-adv-x="652" 
d="M406 894v-128h-130v128h130zM595 484h-126v94h-201v-158h245v-130h-245v-168h201v94h126v-216h-559v118h88v464h-88v118h559v-216z" />
    <glyph glyph-name="Egrave" unicode="&#xc8;" horiz-adv-x="652" 
d="M416 766h-116l-149 144h175zM595 484h-126v94h-201v-158h245v-130h-245v-168h201v94h126v-216h-559v118h88v464h-88v118h559v-216z" />
    <glyph glyph-name="Emacron" unicode="&#x112;" horiz-adv-x="652" 
d="M479 888v-112h-276v112h276zM595 484h-126v94h-201v-158h245v-130h-245v-168h201v94h126v-216h-559v118h88v464h-88v118h559v-216z" />
    <glyph glyph-name="Eogonek" unicode="&#x118;" horiz-adv-x="652" 
d="M575 -87h39v-93h-68c-67 0 -111 19 -111 79c0 52 33 82 57 101h-456v118h88v464h-88v118h559v-216h-126v94h-201v-158h245v-130h-245v-168h201v94h126v-216c-41 -23 -52 -44 -52 -61c0 -18 12 -26 32 -26z" />
    <glyph glyph-name="F" unicode="F" horiz-adv-x="631" 
d="M595 484h-126v94h-201v-161h245v-130h-245v-169h102v-118h-334v118h88v464h-88v118h559v-216z" />
    <glyph glyph-name="G" unicode="G" horiz-adv-x="661" 
d="M451 468v80c0 15 -5 20 -20 20h-199c-15 0 -20 -5 -20 -20v-396c0 -15 5 -20 20 -20h199c15 0 20 5 20 20v114h-138v126h282v-252c0 -95 -45 -140 -140 -140h-247c-95 0 -140 45 -140 140v420c0 95 45 140 140 140h247c95 0 140 -45 140 -140v-92h-144z" />
    <glyph glyph-name="Gbreve" unicode="&#x11e;" horiz-adv-x="661" 
d="M458 901v-55c0 -55 -25 -80 -80 -80h-78c-55 0 -80 25 -80 80v55h84v-43c0 -14 4 -18 18 -18h34c14 0 18 4 18 18v43h84zM451 468v80c0 15 -5 20 -20 20h-199c-15 0 -20 -5 -20 -20v-396c0 -15 5 -20 20 -20h199c15 0 20 5 20 20v114h-138v126h282v-252
c0 -95 -45 -140 -140 -140h-247c-95 0 -140 45 -140 140v420c0 95 45 140 140 140h247c95 0 140 -45 140 -140v-92h-144z" />
    <glyph glyph-name="Gcommaaccent" unicode="&#x122;" horiz-adv-x="661" 
d="M451 468v80c0 15 -5 20 -20 20h-199c-15 0 -20 -5 -20 -20v-396c0 -15 5 -20 20 -20h199c15 0 20 5 20 20v114h-138v126h282v-252c0 -95 -45 -140 -140 -140h-247c-95 0 -140 45 -140 140v420c0 95 45 140 140 140h247c95 0 140 -45 140 -140v-92h-144zM401 -70v-108
c0 -29 -24 -63 -48 -94l-59 -78h-56l77 134h-54v146h140z" />
    <glyph glyph-name="Gdotaccent" unicode="&#x120;" horiz-adv-x="661" 
d="M404 894v-128h-130v128h130zM451 468v80c0 15 -5 20 -20 20h-199c-15 0 -20 -5 -20 -20v-396c0 -15 5 -20 20 -20h199c15 0 20 5 20 20v114h-138v126h282v-252c0 -95 -45 -140 -140 -140h-247c-95 0 -140 45 -140 140v420c0 95 45 140 140 140h247c95 0 140 -45 140 -140
v-92h-144z" />
    <glyph glyph-name="H" unicode="H" horiz-adv-x="786" 
d="M750 582h-88v-464h88v-118h-318v118h86v172h-250v-172h86v-118h-318v118h88v464h-88v118h318v-118h-86v-162h250v162h-86v118h318v-118z" />
    <glyph glyph-name="Hbar" unicode="&#x126;" horiz-adv-x="786" 
d="M750 582h-88v-46h78v-64h-78v-354h88v-118h-318v118h86v172h-250v-172h86v-118h-318v118h88v354h-78v64h78v46h-88v118h318v-118h-86v-46h250v46h-86v118h318v-118zM518 420v52h-250v-52h250z" />
    <glyph glyph-name="I" unicode="I" horiz-adv-x="408" 
d="M368 582h-92v-464h92v-118h-328v118h92v464h-92v118h328v-118z" />
    <glyph glyph-name="IJ" unicode="&#x132;" horiz-adv-x="1020" 
d="M368 700v-118h-92v-464h92v-118h-328v118h92v464h-92v118h328zM988 700v-118h-84v-442c0 -95 -45 -140 -140 -140h-192c-95 0 -140 45 -140 140v156h144v-144c0 -15 5 -20 20 -20h144c15 0 20 5 20 20v430h-102v118h330z" />
    <glyph glyph-name="Iacute" unicode="&#xcd;" horiz-adv-x="408" 
d="M394 910l-149 -144h-116l90 144h175zM368 700v-118h-92v-464h92v-118h-328v118h92v464h-92v118h328z" />
    <glyph glyph-name="Icircumflex" unicode="&#xce;" horiz-adv-x="408" 
d="M204 829l-61 -63h-129l130 130h120l130 -130h-129zM368 700v-118h-92v-464h92v-118h-328v118h92v464h-92v118h328z" />
    <glyph glyph-name="Idieresis" unicode="&#xcf;" horiz-adv-x="408" 
d="M168 894v-128h-130v128h130zM240 894h130v-128h-130v128zM368 700v-118h-92v-464h92v-118h-328v118h92v464h-92v118h328z" />
    <glyph glyph-name="Idotaccent" unicode="&#x130;" horiz-adv-x="408" 
d="M269 894v-128h-130v128h130zM368 582h-92v-464h92v-118h-328v118h92v464h-92v118h328v-118z" />
    <glyph glyph-name="Igrave" unicode="&#xcc;" horiz-adv-x="408" 
d="M279 766h-116l-149 144h175zM368 582h-92v-464h92v-118h-328v118h92v464h-92v118h328v-118z" />
    <glyph glyph-name="Imacron" unicode="&#x12a;" horiz-adv-x="408" 
d="M342 888v-112h-276v112h276zM368 582h-92v-464h92v-118h-328v118h92v464h-92v118h328v-118z" />
    <glyph glyph-name="Iogonek" unicode="&#x12e;" horiz-adv-x="408" 
d="M348 -87h39v-93h-68c-67 0 -111 19 -111 79c0 52 33 82 57 101h-225v118h92v464h-92v118h328v-118h-92v-464h92v-118c-41 -23 -52 -44 -52 -61c0 -18 12 -26 32 -26z" />
    <glyph glyph-name="J" unicode="J" horiz-adv-x="624" 
d="M592 700v-118h-84v-442c0 -95 -45 -140 -140 -140h-192c-95 0 -140 45 -140 140v156h144v-144c0 -15 5 -20 20 -20h144c15 0 20 5 20 20v430h-102v118h330z" />
    <glyph glyph-name="K" unicode="K" horiz-adv-x="748" 
d="M631 118h95v-118h-189l-165 303l-102 -123v-62h90v-118h-320v118h88v464h-88v118h310v-118h-80v-226l174 226h-47v118h300v-118h-93l-136 -164z" />
    <glyph glyph-name="Kcommaaccent" unicode="&#x136;" horiz-adv-x="748" 
d="M631 118h95v-118h-189l-165 303l-102 -123v-62h90v-118h-320v118h88v464h-88v118h310v-118h-80v-226l174 226h-47v118h300v-118h-93l-136 -164zM338 -216v146h140v-108c0 -29 -24 -63 -48 -94l-59 -78h-56l77 134h-54z" />
    <glyph glyph-name="L" unicode="L" horiz-adv-x="626" 
d="M592 276v-276h-556v118h88v464h-88v118h334v-118h-102v-460h194v154h130z" />
    <glyph glyph-name="Lacute" unicode="&#x139;" horiz-adv-x="626" 
d="M386 910l-149 -144h-116l90 144h175zM592 276v-276h-556v118h88v464h-88v118h334v-118h-102v-460h194v154h130z" />
    <glyph glyph-name="Lcaron" unicode="&#x13d;" horiz-adv-x="626" 
d="M592 276v-276h-556v118h88v464h-88v118h334v-118h-102v-460h194v154h130zM584 700v-108c0 -39 -13 -64 -48 -104l-69 -78h-56l77 134h-64v156h160z" />
    <glyph glyph-name="Lcommaaccent" unicode="&#x13b;" horiz-adv-x="626" 
d="M592 276v-276h-556v118h88v464h-88v118h334v-118h-102v-460h194v154h130zM417 -70v-108c0 -29 -24 -63 -48 -94l-59 -78h-56l77 134h-54v146h140z" />
    <glyph glyph-name="Ldot" unicode="&#x13f;" horiz-adv-x="626" 
d="M592 276v-276h-556v118h88v464h-88v118h334v-118h-102v-460h194v154h130zM499 496v-156h-160v156h160z" />
    <glyph glyph-name="Lslash" unicode="&#x141;" horiz-adv-x="626" 
d="M462 276h130v-276h-556v118h88v163l-64 -25v133l64 25v168h-88v118h334v-118h-102v-113l136 52v-133l-136 -52v-214h194v154z" />
    <glyph glyph-name="M" unicode="M" horiz-adv-x="940" 
d="M904 582h-88v-464h88v-118h-320v118h90v332l-153 -335h-106l-153 335v-332h90v-118h-316v118h88v464h-88v118h248l188 -410l188 410h244v-118z" />
    <glyph glyph-name="N" unicode="N" horiz-adv-x="790" 
d="M758 700v-118h-84v-582h-149l-263 481v-363h96v-118h-322v118h88v464h-88v118h246l254 -465v347h-96v118h318z" />
    <glyph glyph-name="Nacute" unicode="&#x143;" horiz-adv-x="790" 
d="M588 910l-149 -144h-116l90 144h175zM758 700v-118h-84v-582h-149l-263 481v-363h96v-118h-322v118h88v464h-88v118h246l254 -465v347h-96v118h318z" />
    <glyph glyph-name="Ncaron" unicode="&#x147;" horiz-adv-x="790" 
d="M458 766h-120l-130 130h129l61 -63l61 63h129zM758 700v-118h-84v-582h-149l-263 481v-363h96v-118h-322v118h88v464h-88v118h246l254 -465v347h-96v118h318z" />
    <glyph glyph-name="Ncommaaccent" unicode="&#x145;" horiz-adv-x="790" 
d="M758 700v-118h-84v-582h-149l-263 481v-363h96v-118h-322v118h88v464h-88v118h246l254 -465v347h-96v118h318zM330 -216v146h140v-108c0 -29 -24 -63 -48 -94l-59 -78h-56l77 134h-54z" />
    <glyph glyph-name="Eng" unicode="&#x14a;" horiz-adv-x="790" 
d="M758 700v-118h-84v-622c0 -91 -49 -140 -140 -140h-122v124h111c13 0 20 7 20 20v25l-283 492v-363h98v-118h-322v118h88v464h-88v118h245l257 -457v339h-98v118h318z" />
    <glyph glyph-name="Ntilde" unicode="&#xd1;" horiz-adv-x="790" 
d="M309 783v-19h-74v25c0 77 38 112 84 112c60 0 101 -46 143 -46c14 0 21 7 21 21v19h76v-25c0 -77 -32 -112 -78 -112c-55 0 -107 46 -149 46c-14 0 -23 -4 -23 -21zM758 700v-118h-84v-582h-149l-263 481v-363h96v-118h-322v118h88v464h-88v118h246l254 -465v347h-96v118
h318z" />
    <glyph glyph-name="O" unicode="O" horiz-adv-x="669" 
d="M208 0c-95 0 -140 45 -140 140v420c0 95 45 140 140 140h253c95 0 140 -45 140 -140v-420c0 -95 -45 -140 -140 -140h-253zM212 152c0 -15 5 -20 20 -20h205c15 0 20 5 20 20v396c0 15 -5 20 -20 20h-205c-15 0 -20 -5 -20 -20v-396z" />
    <glyph glyph-name="Oacute" unicode="&#xd3;" horiz-adv-x="669" 
d="M525 910l-149 -144h-116l90 144h175zM208 0c-95 0 -140 45 -140 140v420c0 95 45 140 140 140h253c95 0 140 -45 140 -140v-420c0 -95 -45 -140 -140 -140h-253zM212 152c0 -15 5 -20 20 -20h205c15 0 20 5 20 20v396c0 15 -5 20 -20 20h-205c-15 0 -20 -5 -20 -20v-396z
" />
    <glyph glyph-name="Ocircumflex" unicode="&#xd4;" horiz-adv-x="669" 
d="M145 766h129l61 63l61 -63h129l-130 130h-120zM208 0c-95 0 -140 45 -140 140v420c0 95 45 140 140 140h253c95 0 140 -45 140 -140v-420c0 -95 -45 -140 -140 -140h-253zM212 152c0 -15 5 -20 20 -20h205c15 0 20 5 20 20v396c0 15 -5 20 -20 20h-205
c-15 0 -20 -5 -20 -20v-396z" />
    <glyph glyph-name="Odieresis" unicode="&#xd6;" horiz-adv-x="669" 
d="M299 894v-128h-130v128h130zM501 894v-128h-130v128h130zM208 0c-95 0 -140 45 -140 140v420c0 95 45 140 140 140h253c95 0 140 -45 140 -140v-420c0 -95 -45 -140 -140 -140h-253zM212 152c0 -15 5 -20 20 -20h205c15 0 20 5 20 20v396c0 15 -5 20 -20 20h-205
c-15 0 -20 -5 -20 -20v-396z" />
    <glyph glyph-name="Ograve" unicode="&#xd2;" horiz-adv-x="669" 
d="M145 910l149 -144h116l-90 144h-175zM208 0c-95 0 -140 45 -140 140v420c0 95 45 140 140 140h253c95 0 140 -45 140 -140v-420c0 -95 -45 -140 -140 -140h-253zM212 152c0 -15 5 -20 20 -20h205c15 0 20 5 20 20v396c0 15 -5 20 -20 20h-205c-15 0 -20 -5 -20 -20v-396z
" />
    <glyph glyph-name="Ohungarumlaut" unicode="&#x150;" horiz-adv-x="669" 
d="M262 911h134l-115 -145h-134zM459 911h134l-115 -145h-134zM208 0c-95 0 -140 45 -140 140v420c0 95 45 140 140 140h253c95 0 140 -45 140 -140v-420c0 -95 -45 -140 -140 -140h-253zM212 152c0 -15 5 -20 20 -20h205c15 0 20 5 20 20v396c0 15 -5 20 -20 20h-205
c-15 0 -20 -5 -20 -20v-396z" />
    <glyph glyph-name="Omacron" unicode="&#x14c;" horiz-adv-x="669" 
d="M197 888h276v-112h-276v112zM208 0c-95 0 -140 45 -140 140v420c0 95 45 140 140 140h253c95 0 140 -45 140 -140v-420c0 -95 -45 -140 -140 -140h-253zM212 152c0 -15 5 -20 20 -20h205c15 0 20 5 20 20v396c0 15 -5 20 -20 20h-205c-15 0 -20 -5 -20 -20v-396z" />
    <glyph glyph-name="Oslash" unicode="&#xd8;" horiz-adv-x="669" 
d="M532 688c47 -19 69 -61 69 -128v-420c0 -95 -45 -140 -140 -140h-203l-24 -60h-126l29 72c-47 19 -69 61 -69 128v420c0 95 45 140 140 140h203l24 60h126zM212 548v-347l146 367h-126c-15 0 -20 -5 -20 -20zM437 132c15 0 20 5 20 20v347l-146 -367h126z" />
    <glyph glyph-name="Otilde" unicode="&#xd5;" horiz-adv-x="669" 
d="M246 783c0 17 9 21 23 21c42 0 94 -46 149 -46c46 0 78 35 78 112v25h-76v-19c0 -14 -7 -21 -21 -21c-42 0 -83 46 -143 46c-46 0 -84 -35 -84 -112v-25h74v19zM208 0c-95 0 -140 45 -140 140v420c0 95 45 140 140 140h253c95 0 140 -45 140 -140v-420
c0 -95 -45 -140 -140 -140h-253zM212 152c0 -15 5 -20 20 -20h205c15 0 20 5 20 20v396c0 15 -5 20 -20 20h-205c-15 0 -20 -5 -20 -20v-396z" />
    <glyph glyph-name="OE" unicode="&#x152;" horiz-adv-x="985" 
d="M928 700v-216h-126v94h-201v-158h245v-130h-245v-168h201v94h126v-216h-720c-95 0 -140 45 -140 140v420c0 95 45 140 140 140h720zM457 132v436h-225c-15 0 -20 -5 -20 -20v-396c0 -15 5 -20 20 -20h225z" />
    <glyph glyph-name="P" unicode="P" horiz-adv-x="672" 
d="M486 700c95 0 140 -45 140 -140v-162c0 -95 -45 -140 -140 -140h-218v-140h104v-118h-336v118h88v464h-88v118h450zM482 406v146c0 15 -5 20 -20 20h-194v-186h194c15 0 20 5 20 20z" />
    <glyph glyph-name="Thorn" unicode="&#xde;" horiz-adv-x="676" 
d="M490 577c95 0 140 -45 140 -140v-162c0 -95 -45 -140 -140 -140h-218v-135h-232v118h88v464h-88v118h232v-123h218zM486 283v146c0 15 -5 20 -20 20h-194v-186h194c15 0 20 5 20 20z" />
    <glyph glyph-name="Q" unicode="Q" horiz-adv-x="669" 
d="M461 700c95 0 140 -45 140 -140v-420c0 -95 -45 -140 -140 -140h-54v-132h-144v132h-55c-95 0 -140 45 -140 140v420c0 95 45 140 140 140h253zM457 548c0 15 -5 20 -20 20h-205c-15 0 -20 -5 -20 -20v-396c0 -15 5 -20 20 -20h205c15 0 20 5 20 20v396z" />
    <glyph glyph-name="R" unicode="R" horiz-adv-x="712" 
d="M606 118h90v-118h-187l-131 270h-110v-152h102v-118h-334v118h88v464h-88v118h450c95 0 140 -45 140 -140v-142c0 -80 -32 -124 -98 -137zM268 396h194c15 0 20 5 20 20v136c0 15 -5 20 -20 20h-194v-176z" />
    <glyph glyph-name="Racute" unicode="&#x154;" horiz-adv-x="712" 
d="M552 910l-149 -144h-116l90 144h175zM606 118h90v-118h-187l-131 270h-110v-152h102v-118h-334v118h88v464h-88v118h450c95 0 140 -45 140 -140v-142c0 -80 -32 -124 -98 -137zM268 396h194c15 0 20 5 20 20v136c0 15 -5 20 -20 20h-194v-176z" />
    <glyph glyph-name="Rcaron" unicode="&#x158;" horiz-adv-x="712" 
d="M422 766h-120l-130 130h129l61 -63l61 63h129zM606 118h90v-118h-187l-131 270h-110v-152h102v-118h-334v118h88v464h-88v118h450c95 0 140 -45 140 -140v-142c0 -80 -32 -124 -98 -137zM268 396h194c15 0 20 5 20 20v136c0 15 -5 20 -20 20h-194v-176z" />
    <glyph glyph-name="Rcommaaccent" unicode="&#x156;" horiz-adv-x="712" 
d="M606 118h90v-118h-187l-131 270h-110v-152h102v-118h-334v118h88v464h-88v118h450c95 0 140 -45 140 -140v-142c0 -80 -32 -124 -98 -137zM268 396h194c15 0 20 5 20 20v136c0 15 -5 20 -20 20h-194v-176zM324 -216v146h140v-108c0 -29 -24 -63 -48 -94l-59 -78h-56
l77 134h-54z" />
    <glyph glyph-name="S" unicode="S" horiz-adv-x="624" 
d="M418 480v70c0 15 -5 20 -20 20h-178c-15 0 -20 -5 -20 -20v-76c0 -22 8 -29 34 -34l192 -40c88 -18 144 -54 144 -144v-116c0 -95 -45 -140 -140 -140h-236c-95 0 -140 45 -140 140v88h140v-78c0 -15 5 -20 20 -20h192c15 0 20 5 20 20v84c0 22 -8 29 -34 34l-192 40
c-88 18 -144 54 -144 144v108c0 95 45 140 140 140h222c95 0 140 -45 140 -140v-80h-140z" />
    <glyph glyph-name="Sacute" unicode="&#x15a;" horiz-adv-x="624" 
d="M503 910l-149 -144h-116l90 144h175zM418 480v70c0 15 -5 20 -20 20h-178c-15 0 -20 -5 -20 -20v-76c0 -22 8 -29 34 -34l192 -40c88 -18 144 -54 144 -144v-116c0 -95 -45 -140 -140 -140h-236c-95 0 -140 45 -140 140v88h140v-78c0 -15 5 -20 20 -20h192
c15 0 20 5 20 20v84c0 22 -8 29 -34 34l-192 40c-88 18 -144 54 -144 144v108c0 95 45 140 140 140h222c95 0 140 -45 140 -140v-80h-140z" />
    <glyph glyph-name="Scaron" unicode="&#x160;" horiz-adv-x="624" 
d="M123 896l130 -130h120l130 130h-129l-61 -63l-61 63h-129zM418 480v70c0 15 -5 20 -20 20h-178c-15 0 -20 -5 -20 -20v-76c0 -22 8 -29 34 -34l192 -40c88 -18 144 -54 144 -144v-116c0 -95 -45 -140 -140 -140h-236c-95 0 -140 45 -140 140v88h140v-78
c0 -15 5 -20 20 -20h192c15 0 20 5 20 20v84c0 22 -8 29 -34 34l-192 40c-88 18 -144 54 -144 144v108c0 95 45 140 140 140h222c95 0 140 -45 140 -140v-80h-140z" />
    <glyph glyph-name="Scedilla" unicode="&#x15e;" horiz-adv-x="624" 
d="M426 400c88 -18 144 -54 144 -144v-116c0 -95 -45 -140 -140 -140h-54v-73c0 -74 -32 -94 -94 -94h-75l-50 78h95c15 0 20 5 20 20v69h-78c-95 0 -140 45 -140 140v88h140v-78c0 -15 5 -20 20 -20h192c15 0 20 5 20 20v84c0 22 -8 29 -34 34l-192 40
c-88 18 -144 54 -144 144v108c0 95 45 140 140 140h222c95 0 140 -45 140 -140v-80h-140v70c0 15 -5 20 -20 20h-178c-15 0 -20 -5 -20 -20v-76c0 -22 8 -29 34 -34z" />
    <glyph glyph-name="T" unicode="T" horiz-adv-x="674" 
d="M642 454h-126v126h-107v-462h108v-118h-360v118h108v462h-107v-126h-126v246h610v-246z" />
    <glyph glyph-name="Tbar" unicode="&#x166;" horiz-adv-x="674" 
d="M475 888v-112h-276v112h276zM642 454h-126v126h-107v-462h108v-118h-360v118h108v462h-107v-126h-126v246h610v-246z" />
    <glyph glyph-name="Tcaron" unicode="&#x164;" horiz-adv-x="674" 
d="M397 766h-120l-130 130h129l61 -63l61 63h129zM642 454h-126v126h-107v-462h108v-118h-360v118h108v462h-107v-126h-126v246h610v-246z" />
    <glyph glyph-name="uni0162" unicode="&#x162;" horiz-adv-x="674" 
d="M642 454h-126v126h-107v-462h108v-118h-127v-73c0 -74 -32 -94 -94 -94h-75l-50 78h95c15 0 20 5 20 20v69h-129v118h108v462h-107v-126h-126v246h610v-246z" />
    <glyph glyph-name="U" unicode="U" horiz-adv-x="754" 
d="M722 700v-118h-84v-442c0 -95 -45 -140 -140 -140h-242c-95 0 -140 45 -140 140v442h-84v118h316v-118h-88v-430c0 -15 5 -20 20 -20h194c15 0 20 5 20 20v430h-88v118h316z" />
    <glyph glyph-name="Uacute" unicode="&#xda;" horiz-adv-x="754" 
d="M567 910l-149 -144h-116l90 144h175zM722 700v-118h-84v-442c0 -95 -45 -140 -140 -140h-242c-95 0 -140 45 -140 140v442h-84v118h316v-118h-88v-430c0 -15 5 -20 20 -20h194c15 0 20 5 20 20v430h-88v118h316z" />
    <glyph glyph-name="Ucircumflex" unicode="&#xdb;" horiz-adv-x="754" 
d="M377 829l-61 -63h-129l130 130h120l130 -130h-129zM722 700v-118h-84v-442c0 -95 -45 -140 -140 -140h-242c-95 0 -140 45 -140 140v442h-84v118h316v-118h-88v-430c0 -15 5 -20 20 -20h194c15 0 20 5 20 20v430h-88v118h316z" />
    <glyph glyph-name="Udieresis" unicode="&#xdc;" horiz-adv-x="754" 
d="M341 894v-128h-130v128h130zM543 894v-128h-130v128h130zM722 700v-118h-84v-442c0 -95 -45 -140 -140 -140h-242c-95 0 -140 45 -140 140v442h-84v118h316v-118h-88v-430c0 -15 5 -20 20 -20h194c15 0 20 5 20 20v430h-88v118h316z" />
    <glyph glyph-name="Ugrave" unicode="&#xd9;" horiz-adv-x="754" 
d="M452 766h-116l-149 144h175zM722 700v-118h-84v-442c0 -95 -45 -140 -140 -140h-242c-95 0 -140 45 -140 140v442h-84v118h316v-118h-88v-430c0 -15 5 -20 20 -20h194c15 0 20 5 20 20v430h-88v118h316z" />
    <glyph glyph-name="Uhungarumlaut" unicode="&#x170;" horiz-adv-x="754" 
d="M438 911l-115 -145h-134l115 145h134zM520 766h-134l115 145h134zM722 700v-118h-84v-442c0 -95 -45 -140 -140 -140h-242c-95 0 -140 45 -140 140v442h-84v118h316v-118h-88v-430c0 -15 5 -20 20 -20h194c15 0 20 5 20 20v430h-88v118h316z" />
    <glyph glyph-name="Umacron" unicode="&#x16a;" horiz-adv-x="754" 
d="M515 888v-112h-276v112h276zM722 700v-118h-84v-442c0 -95 -45 -140 -140 -140h-242c-95 0 -140 45 -140 140v442h-84v118h316v-118h-88v-430c0 -15 5 -20 20 -20h194c15 0 20 5 20 20v430h-88v118h316z" />
    <glyph glyph-name="Uogonek" unicode="&#x172;" horiz-adv-x="754" 
d="M722 700v-118h-84v-442c0 -95 -45 -140 -140 -140h-62c-41 -23 -52 -44 -52 -61c0 -18 12 -26 32 -26h39v-93h-68c-67 0 -111 19 -111 79c0 52 33 82 57 101h-77c-95 0 -140 45 -140 140v442h-84v118h316v-118h-88v-430c0 -15 5 -20 20 -20h194c15 0 20 5 20 20v430h-88
v118h316z" />
    <glyph glyph-name="Uring" unicode="&#x16e;" horiz-adv-x="754" 
d="M341 766c-42 0 -60 18 -60 60v60c0 42 18 60 60 60h72c42 0 60 -18 60 -60v-60c0 -42 -18 -60 -60 -60h-72zM343 878v-44c0 -10 2 -12 12 -12h44c10 0 12 2 12 12v44c0 10 -2 12 -12 12h-44c-10 0 -12 -2 -12 -12zM722 700v-118h-84v-442c0 -95 -45 -140 -140 -140h-242
c-95 0 -140 45 -140 140v442h-84v118h316v-118h-88v-430c0 -15 5 -20 20 -20h194c15 0 20 5 20 20v430h-88v118h316z" />
    <glyph glyph-name="V" unicode="V" horiz-adv-x="758" 
d="M738 700v-118h-80l-193 -582h-172l-193 582h-80v118h304v-118h-69l126 -413l126 413h-69v118h300z" />
    <glyph glyph-name="W" unicode="W" horiz-adv-x="1036" 
d="M1016 700v-118h-79l-146 -582h-152l-118 456l-118 -456h-159l-145 582h-79v118h306v-118h-82l84 -396l132 514h122l132 -514l84 396h-82v118h300z" />
    <glyph glyph-name="Wacute" unicode="&#x1e82;" horiz-adv-x="1036" 
d="M711 910l-149 -144h-116l90 144h175zM1016 700v-118h-79l-146 -582h-152l-118 456l-118 -456h-159l-145 582h-79v118h306v-118h-82l84 -396l132 514h122l132 -514l84 396h-82v118h300z" />
    <glyph glyph-name="Wcircumflex" unicode="&#x174;" horiz-adv-x="1036" 
d="M521 829l-61 -63h-129l130 130h120l130 -130h-129zM1016 700v-118h-79l-146 -582h-152l-118 456l-118 -456h-159l-145 582h-79v118h306v-118h-82l84 -396l132 514h122l132 -514l84 396h-82v118h300z" />
    <glyph glyph-name="Wdieresis" unicode="&#x1e84;" horiz-adv-x="1036" 
d="M485 894v-128h-130v128h130zM687 894v-128h-130v128h130zM1016 700v-118h-79l-146 -582h-152l-118 456l-118 -456h-159l-145 582h-79v118h306v-118h-82l84 -396l132 514h122l132 -514l84 396h-82v118h300z" />
    <glyph glyph-name="Wgrave" unicode="&#x1e80;" horiz-adv-x="1036" 
d="M596 766h-116l-149 144h175zM1016 700v-118h-79l-146 -582h-152l-118 456l-118 -456h-159l-145 582h-79v118h306v-118h-82l84 -396l132 514h122l132 -514l84 396h-82v118h300z" />
    <glyph glyph-name="X" unicode="X" horiz-adv-x="709" 
d="M605 118h84v-118h-286v118h46l-98 156l-97 -156h46v-118h-280v118h83l157 238l-150 226h-83v118h286v-118h-46l91 -146l92 146h-46v118h279v-118h-84l-154 -226z" />
    <glyph glyph-name="Y" unicode="Y" horiz-adv-x="720" 
d="M622 582l-190 -341v-123h90v-118h-324v118h90v123l-190 341h-78v118h282v-118h-49l108 -200l108 200h-49v118h280v-118h-78z" />
    <glyph glyph-name="Yacute" unicode="&#xdd;" horiz-adv-x="720" 
d="M551 910l-149 -144h-116l90 144h175zM622 582l-190 -341v-123h90v-118h-324v118h90v123l-190 341h-78v118h282v-118h-49l108 -200l108 200h-49v118h280v-118h-78z" />
    <glyph glyph-name="Ycircumflex" unicode="&#x176;" horiz-adv-x="720" 
d="M361 829l-61 -63h-129l130 130h120l130 -130h-129zM622 582l-190 -341v-123h90v-118h-324v118h90v123l-190 341h-78v118h282v-118h-49l108 -200l108 200h-49v118h280v-118h-78z" />
    <glyph glyph-name="Ydieresis" unicode="&#x178;" horiz-adv-x="720" 
d="M325 894v-128h-130v128h130zM527 894v-128h-130v128h130zM622 582l-190 -341v-123h90v-118h-324v118h90v123l-190 341h-78v118h282v-118h-49l108 -200l108 200h-49v118h280v-118h-78z" />
    <glyph glyph-name="Ygrave" unicode="&#x1ef2;" horiz-adv-x="720" 
d="M436 766h-116l-149 144h175zM622 582l-190 -341v-123h90v-118h-324v118h90v123l-190 341h-78v118h282v-118h-49l108 -200l108 200h-49v118h280v-118h-78z" />
    <glyph glyph-name="Z" unicode="Z" horiz-adv-x="638" 
d="M460 236h124v-236h-530v108l348 464h-214v-108h-124v236h516v-108l-348 -464h228v108z" />
    <glyph glyph-name="Zacute" unicode="&#x179;" horiz-adv-x="638" 
d="M521 910l-149 -144h-116l90 144h175zM460 236h124v-236h-530v108l348 464h-214v-108h-124v236h516v-108l-348 -464h228v108z" />
    <glyph glyph-name="Zcaron" unicode="&#x17d;" horiz-adv-x="638" 
d="M391 766h-120l-130 130h129l61 -63l61 63h129zM460 236h124v-236h-530v108l348 464h-214v-108h-124v236h516v-108l-348 -464h228v108z" />
    <glyph glyph-name="Zdotaccent" unicode="&#x17b;" horiz-adv-x="638" 
d="M396 894v-128h-130v128h130zM460 236h124v-236h-530v108l348 464h-214v-108h-124v236h516v-108l-348 -464h228v108z" />
    <glyph glyph-name="B.ss01" horiz-adv-x="690" 
d="M571 362c50 -22 71 -61 71 -108v-114c0 -95 -45 -140 -140 -140h-462v118h88v464h-88v118h454c95 0 140 -45 140 -140v-90c0 -47 -17 -83 -63 -108zM272 424h198c15 0 20 5 20 20v106c0 15 -5 20 -20 20h-198v-146zM498 280c0 15 -5 20 -20 20h-206v-170h206
c15 0 20 5 20 20v130z" />
    <glyph glyph-name="K.ss01" horiz-adv-x="748" 
d="M614 118h112v-118h-199l-200 294h-55v-176h88v-118h-320v118h88v464h-88v118h310v-118h-78v-160h56l112 160h-36v118h290v-118h-90l-157 -224z" />
    <glyph glyph-name="Kcommaaccent.ss01" horiz-adv-x="748" 
d="M614 118h112v-118h-199l-200 294h-55v-176h88v-118h-320v118h88v464h-88v118h310v-118h-78v-160h56l112 160h-36v118h290v-118h-90l-157 -224zM336 -216v146h140v-108c0 -29 -24 -63 -48 -94l-59 -78h-56l77 134h-54z" />
    <glyph glyph-name="a" unicode="a" horiz-adv-x="594" 
d="M494 102h72v-102h-210v84c-36 -50 -71 -84 -169 -84c-104 0 -145 41 -145 153c0 113 53 152 140 164c44 6 107 13 174 16v72c0 16 -6 22 -22 22h-116c-16 0 -22 -6 -22 -22v-32h-136v37c0 89 41 130 130 130h174c89 0 130 -41 130 -130v-308zM356 156v89l-143 -27
c-26 -5 -35 -10 -35 -51c0 -43 6 -49 36 -49c66 0 101 16 142 38z" />
    <glyph glyph-name="aacute" unicode="&#xe1;" horiz-adv-x="594" 
d="M477 750l-149 -144h-116l90 144h175zM494 102h72v-102h-210v84c-36 -50 -71 -84 -169 -84c-104 0 -145 41 -145 153c0 113 53 152 140 164c44 6 107 13 174 16v72c0 16 -6 22 -22 22h-116c-16 0 -22 -6 -22 -22v-32h-136v37c0 89 41 130 130 130h174
c89 0 130 -41 130 -130v-308zM356 156v89l-143 -27c-26 -5 -35 -10 -35 -51c0 -43 6 -49 36 -49c66 0 101 16 142 38z" />
    <glyph glyph-name="abreve" unicode="&#x103;" horiz-adv-x="594" 
d="M248 606c-55 0 -80 25 -80 80v55h84v-43c0 -14 4 -18 18 -18h34c14 0 18 4 18 18v43h84v-55c0 -55 -25 -80 -80 -80h-78zM494 102h72v-102h-210v84c-36 -50 -71 -84 -169 -84c-104 0 -145 41 -145 153c0 113 53 152 140 164c44 6 107 13 174 16v72c0 16 -6 22 -22 22
h-116c-16 0 -22 -6 -22 -22v-32h-136v37c0 89 41 130 130 130h174c89 0 130 -41 130 -130v-308zM356 156v89l-143 -27c-26 -5 -35 -10 -35 -51c0 -43 6 -49 36 -49c66 0 101 16 142 38z" />
    <glyph glyph-name="acircumflex" unicode="&#xe2;" horiz-adv-x="594" 
d="M287 669l-61 -63h-129l130 130h120l130 -130h-129zM494 102h72v-102h-210v84c-36 -50 -71 -84 -169 -84c-104 0 -145 41 -145 153c0 113 53 152 140 164c44 6 107 13 174 16v72c0 16 -6 22 -22 22h-116c-16 0 -22 -6 -22 -22v-32h-136v37c0 89 41 130 130 130h174
c89 0 130 -41 130 -130v-308zM356 156v89l-143 -27c-26 -5 -35 -10 -35 -51c0 -43 6 -49 36 -49c66 0 101 16 142 38z" />
    <glyph glyph-name="adieresis" unicode="&#xe4;" horiz-adv-x="594" 
d="M251 734v-128h-130v128h130zM453 734v-128h-130v128h130zM494 102h72v-102h-210v84c-36 -50 -71 -84 -169 -84c-104 0 -145 41 -145 153c0 113 53 152 140 164c44 6 107 13 174 16v72c0 16 -6 22 -22 22h-116c-16 0 -22 -6 -22 -22v-32h-136v37c0 89 41 130 130 130h174
c89 0 130 -41 130 -130v-308zM356 156v89l-143 -27c-26 -5 -35 -10 -35 -51c0 -43 6 -49 36 -49c66 0 101 16 142 38z" />
    <glyph glyph-name="agrave" unicode="&#xe0;" horiz-adv-x="594" 
d="M362 606h-116l-149 144h175zM494 102h72v-102h-210v84c-36 -50 -71 -84 -169 -84c-104 0 -145 41 -145 153c0 113 53 152 140 164c44 6 107 13 174 16v72c0 16 -6 22 -22 22h-116c-16 0 -22 -6 -22 -22v-32h-136v37c0 89 41 130 130 130h174c89 0 130 -41 130 -130v-308z
M356 156v89l-143 -27c-26 -5 -35 -10 -35 -51c0 -43 6 -49 36 -49c66 0 101 16 142 38z" />
    <glyph glyph-name="amacron" unicode="&#x101;" horiz-adv-x="594" 
d="M425 728v-112h-276v112h276zM494 102h72v-102h-210v84c-36 -50 -71 -84 -169 -84c-104 0 -145 41 -145 153c0 113 53 152 140 164c44 6 107 13 174 16v72c0 16 -6 22 -22 22h-116c-16 0 -22 -6 -22 -22v-32h-136v37c0 89 41 130 130 130h174c89 0 130 -41 130 -130v-308z
M356 156v89l-143 -27c-26 -5 -35 -10 -35 -51c0 -43 6 -49 36 -49c66 0 101 16 142 38z" />
    <glyph glyph-name="aogonek" unicode="&#x105;" horiz-adv-x="594" 
d="M546 -87h39v-93h-68c-67 0 -111 19 -111 79c0 52 33 82 57 101h-107v84c-36 -50 -71 -84 -169 -84c-104 0 -145 41 -145 153c0 113 53 152 140 164c44 6 107 13 174 16v72c0 16 -6 22 -22 22h-116c-16 0 -22 -6 -22 -22v-32h-136v37c0 89 41 130 130 130h174
c89 0 130 -41 130 -130v-308h72v-102c-41 -23 -52 -44 -52 -61c0 -18 12 -26 32 -26zM356 156v89l-143 -27c-26 -5 -35 -10 -35 -51c0 -43 6 -49 36 -49c66 0 101 16 142 38z" />
    <glyph glyph-name="aring" unicode="&#xe5;" horiz-adv-x="594" 
d="M251 606c-42 0 -60 18 -60 60v60c0 42 18 60 60 60h72c42 0 60 -18 60 -60v-60c0 -42 -18 -60 -60 -60h-72zM253 718v-44c0 -10 2 -12 12 -12h44c10 0 12 2 12 12v44c0 10 -2 12 -12 12h-44c-10 0 -12 -2 -12 -12zM494 102h72v-102h-210v84c-36 -50 -71 -84 -169 -84
c-104 0 -145 41 -145 153c0 113 53 152 140 164c44 6 107 13 174 16v72c0 16 -6 22 -22 22h-116c-16 0 -22 -6 -22 -22v-32h-136v37c0 89 41 130 130 130h174c89 0 130 -41 130 -130v-308zM356 156v89l-143 -27c-26 -5 -35 -10 -35 -51c0 -43 6 -49 36 -49
c66 0 101 16 142 38z" />
    <glyph glyph-name="atilde" unicode="&#xe3;" horiz-adv-x="594" 
d="M198 623v-19h-74v25c0 77 38 112 84 112c60 0 101 -46 143 -46c14 0 21 7 21 21v19h76v-25c0 -77 -32 -112 -78 -112c-55 0 -107 46 -149 46c-14 0 -23 -4 -23 -21zM494 102h72v-102h-210v84c-36 -50 -71 -84 -169 -84c-104 0 -145 41 -145 153c0 113 53 152 140 164
c44 6 107 13 174 16v72c0 16 -6 22 -22 22h-116c-16 0 -22 -6 -22 -22v-32h-136v37c0 89 41 130 130 130h174c89 0 130 -41 130 -130v-308zM356 156v89l-143 -27c-26 -5 -35 -10 -35 -51c0 -43 6 -49 36 -49c66 0 101 16 142 38z" />
    <glyph glyph-name="ae" unicode="&#xe6;" horiz-adv-x="851" 
d="M494 231v-97c0 -16 6 -22 22 -22h127c16 0 22 6 22 22v42h138v-46c0 -89 -41 -130 -130 -130h-187c-73 0 -114 28 -126 87c-28 -46 -82 -87 -173 -87c-104 0 -145 41 -145 153c0 113 53 152 140 164c44 6 107 13 174 16v72c0 16 -6 22 -22 22h-116c-16 0 -22 -6 -22 -22
v-32h-136v37c0 89 41 130 130 130h174c38 0 54 -9 61 -25c7 16 23 25 61 25h187c89 0 130 -41 130 -130v-179h-309zM494 324h171v82c0 16 -6 22 -22 22h-127c-16 0 -22 -6 -22 -22v-82zM356 245l-143 -27c-26 -5 -35 -10 -35 -51c0 -43 6 -49 36 -49c66 0 101 16 142 38v89z
" />
    <glyph glyph-name="b" unicode="b" horiz-adv-x="620" 
d="M418 544c109 0 150 -41 150 -140v-268c0 -99 -41 -140 -150 -140c-103 0 -138 34 -174 84v-80h-214v102h76v526h-76v102h214v-270c36 50 71 84 174 84zM430 152v236c0 26 -6 32 -40 32c-70 0 -105 -10 -146 -32v-236c41 -22 76 -32 146 -32c34 0 40 6 40 32z" />
    <glyph glyph-name="c" unicode="c" horiz-adv-x="535" 
d="M359 540c89 0 130 -41 130 -130v-68h-138v56c0 16 -6 22 -22 22h-117c-16 0 -22 -6 -22 -22v-256c0 -16 6 -22 22 -22h117c16 0 22 6 22 22v56h138v-68c0 -89 -41 -130 -130 -130h-177c-89 0 -130 41 -130 130v280c0 89 41 130 130 130h177z" />
    <glyph glyph-name="cacute" unicode="&#x107;" horiz-adv-x="535" 
d="M463 750l-149 -144h-116l90 144h175zM359 540c89 0 130 -41 130 -130v-68h-138v56c0 16 -6 22 -22 22h-117c-16 0 -22 -6 -22 -22v-256c0 -16 6 -22 22 -22h117c16 0 22 6 22 22v56h138v-68c0 -89 -41 -130 -130 -130h-177c-89 0 -130 41 -130 130v280
c0 89 41 130 130 130h177z" />
    <glyph glyph-name="ccaron" unicode="&#x10d;" horiz-adv-x="535" 
d="M83 736l130 -130h120l130 130h-129l-61 -63l-61 63h-129zM359 540c89 0 130 -41 130 -130v-68h-138v56c0 16 -6 22 -22 22h-117c-16 0 -22 -6 -22 -22v-256c0 -16 6 -22 22 -22h117c16 0 22 6 22 22v56h138v-68c0 -89 -41 -130 -130 -130h-177c-89 0 -130 41 -130 130
v280c0 89 41 130 130 130h177z" />
    <glyph glyph-name="ccedilla" unicode="&#xe7;" horiz-adv-x="535" 
d="M489 342h-138v56c0 16 -6 22 -22 22h-117c-16 0 -22 -6 -22 -22v-256c0 -16 6 -22 22 -22h117c16 0 22 6 22 22v56h138v-68c0 -89 -41 -130 -130 -130h-30v-73c0 -74 -32 -94 -94 -94h-75l-50 78h95c15 0 20 5 20 20v69h-43c-89 0 -130 41 -130 130v280
c0 89 41 130 130 130h177c89 0 130 -41 130 -130v-68z" />
    <glyph glyph-name="cdotaccent" unicode="&#x10b;" horiz-adv-x="535" 
d="M338 734v-128h-130v128h130zM359 540c89 0 130 -41 130 -130v-68h-138v56c0 16 -6 22 -22 22h-117c-16 0 -22 -6 -22 -22v-256c0 -16 6 -22 22 -22h117c16 0 22 6 22 22v56h138v-68c0 -89 -41 -130 -130 -130h-177c-89 0 -130 41 -130 130v280c0 89 41 130 130 130h177z
" />
    <glyph glyph-name="d" unicode="d" horiz-adv-x="612" 
d="M514 102h72v-102h-210v80c-36 -50 -71 -84 -174 -84c-109 0 -150 41 -150 140v268c0 99 41 140 150 140c103 0 138 -34 174 -84v168h-94v102h232v-628zM376 152v236c-41 22 -76 32 -146 32c-34 0 -40 -6 -40 -22v-256c0 -16 6 -22 40 -22c70 0 105 10 146 32z" />
    <glyph glyph-name="eth" unicode="&#xf0;" horiz-adv-x="566" 
d="M383 675c109 -27 131 -76 131 -161v-384c0 -89 -41 -130 -130 -130h-202c-89 0 -130 41 -130 130v244c0 99 41 140 150 140c103 0 138 -34 174 -84v94c0 33 -7 42 -34 52l-41 15l-38 -38h-116l68 69l-81 30v84l156 -38l42 43h116zM376 142v216c-41 22 -76 32 -146 32
c-34 0 -40 -6 -40 -32v-216c0 -16 6 -22 22 -22h142c16 0 22 6 22 22z" />
    <glyph glyph-name="dcaron" unicode="&#x10f;" horiz-adv-x="759" 
d="M514 730v-628h72v-102h-210v80c-36 -50 -71 -84 -174 -84c-109 0 -150 41 -150 140v268c0 99 41 140 150 140c103 0 138 -34 174 -84v168h-94v102h232zM589 730h160v-108c0 -39 -13 -64 -48 -104l-69 -78h-56l77 134h-64v156zM376 152v236c-41 22 -76 32 -146 32
c-34 0 -40 -6 -40 -22v-256c0 -16 6 -22 40 -22c70 0 105 10 146 32z" />
    <glyph glyph-name="dcroat" unicode="&#x111;" horiz-adv-x="612" 
d="M514 102h72v-102h-210v80c-36 -50 -71 -84 -174 -84c-109 0 -150 41 -150 140v268c0 99 41 140 150 140c103 0 138 -34 174 -84v87h-93v52h93v29h-94v102h232v-131h61v-52h-61v-445zM376 152v236c-41 22 -76 32 -146 32c-34 0 -40 -6 -40 -22v-256c0 -16 6 -22 40 -22
c70 0 105 10 146 32z" />
    <glyph glyph-name="e" unicode="e" horiz-adv-x="545" 
d="M497 231h-307v-97c0 -16 6 -22 22 -22h125c16 0 22 6 22 22v42h138v-46c0 -89 -41 -130 -130 -130h-185c-89 0 -130 41 -130 130v280c0 89 41 130 130 130h185c89 0 130 -41 130 -130v-179zM212 428c-16 0 -22 -6 -22 -22v-82h169v82c0 16 -6 22 -22 22h-125z" />
    <glyph glyph-name="eacute" unicode="&#xe9;" horiz-adv-x="545" 
d="M465 750l-149 -144h-116l90 144h175zM497 231h-307v-97c0 -16 6 -22 22 -22h125c16 0 22 6 22 22v42h138v-46c0 -89 -41 -130 -130 -130h-185c-89 0 -130 41 -130 130v280c0 89 41 130 130 130h185c89 0 130 -41 130 -130v-179zM212 428c-16 0 -22 -6 -22 -22v-82h169v82
c0 16 -6 22 -22 22h-125z" />
    <glyph glyph-name="ecaron" unicode="&#x11b;" horiz-adv-x="545" 
d="M335 606h-120l-130 130h129l61 -63l61 63h129zM497 231h-307v-97c0 -16 6 -22 22 -22h125c16 0 22 6 22 22v42h138v-46c0 -89 -41 -130 -130 -130h-185c-89 0 -130 41 -130 130v280c0 89 41 130 130 130h185c89 0 130 -41 130 -130v-179zM212 428c-16 0 -22 -6 -22 -22
v-82h169v82c0 16 -6 22 -22 22h-125z" />
    <glyph glyph-name="ecircumflex" unicode="&#xea;" horiz-adv-x="545" 
d="M275 669l-61 -63h-129l130 130h120l130 -130h-129zM497 231h-307v-97c0 -16 6 -22 22 -22h125c16 0 22 6 22 22v42h138v-46c0 -89 -41 -130 -130 -130h-185c-89 0 -130 41 -130 130v280c0 89 41 130 130 130h185c89 0 130 -41 130 -130v-179zM212 428
c-16 0 -22 -6 -22 -22v-82h169v82c0 16 -6 22 -22 22h-125z" />
    <glyph glyph-name="edieresis" unicode="&#xeb;" horiz-adv-x="545" 
d="M239 734v-128h-130v128h130zM441 734v-128h-130v128h130zM497 231h-307v-97c0 -16 6 -22 22 -22h125c16 0 22 6 22 22v42h138v-46c0 -89 -41 -130 -130 -130h-185c-89 0 -130 41 -130 130v280c0 89 41 130 130 130h185c89 0 130 -41 130 -130v-179zM212 428
c-16 0 -22 -6 -22 -22v-82h169v82c0 16 -6 22 -22 22h-125z" />
    <glyph glyph-name="edotaccent" unicode="&#x117;" horiz-adv-x="545" 
d="M340 734v-128h-130v128h130zM497 231h-307v-97c0 -16 6 -22 22 -22h125c16 0 22 6 22 22v42h138v-46c0 -89 -41 -130 -130 -130h-185c-89 0 -130 41 -130 130v280c0 89 41 130 130 130h185c89 0 130 -41 130 -130v-179zM212 428c-16 0 -22 -6 -22 -22v-82h169v82
c0 16 -6 22 -22 22h-125z" />
    <glyph glyph-name="egrave" unicode="&#xe8;" horiz-adv-x="545" 
d="M350 606h-116l-149 144h175zM497 231h-307v-97c0 -16 6 -22 22 -22h125c16 0 22 6 22 22v42h138v-46c0 -89 -41 -130 -130 -130h-185c-89 0 -130 41 -130 130v280c0 89 41 130 130 130h185c89 0 130 -41 130 -130v-179zM212 428c-16 0 -22 -6 -22 -22v-82h169v82
c0 16 -6 22 -22 22h-125z" />
    <glyph glyph-name="emacron" unicode="&#x113;" horiz-adv-x="545" 
d="M413 728v-112h-276v112h276zM497 231h-307v-97c0 -16 6 -22 22 -22h125c16 0 22 6 22 22v42h138v-46c0 -89 -41 -130 -130 -130h-185c-89 0 -130 41 -130 130v280c0 89 41 130 130 130h185c89 0 130 -41 130 -130v-179zM212 428c-16 0 -22 -6 -22 -22v-82h169v82
c0 16 -6 22 -22 22h-125z" />
    <glyph glyph-name="eogonek" unicode="&#x119;" horiz-adv-x="545" 
d="M497 231h-307v-97c0 -16 6 -22 22 -22h125c16 0 22 6 22 22v42h138v-46c0 -89 -41 -130 -130 -130h-6c-41 -23 -52 -44 -52 -61c0 -18 12 -26 32 -26h39v-93h-68c-67 0 -111 19 -111 79c0 52 33 82 57 101h-76c-89 0 -130 41 -130 130v280c0 89 41 130 130 130h185
c89 0 130 -41 130 -130v-179zM212 428c-16 0 -22 -6 -22 -22v-82h169v82c0 16 -6 22 -22 22h-125z" />
    <glyph glyph-name="f" unicode="f" horiz-adv-x="385" 
d="M275 626c-16 0 -22 -6 -22 -22v-64h108v-112h-108v-326h88v-102h-314v102h88v326h-87v112h87v60c0 89 41 130 130 130h124v-104h-94z" />
    <glyph glyph-name="g" unicode="g" horiz-adv-x="612" 
d="M586 540v-102h-72v-468c0 -89 -41 -130 -130 -130h-262v110h232c16 0 22 6 22 22v132c-36 -50 -71 -84 -174 -84c-109 0 -150 41 -150 140v244c0 99 41 140 150 140c103 0 138 -34 174 -84v80h210zM376 176v212c-41 22 -76 32 -146 32c-34 0 -40 -6 -40 -22v-232
c0 -16 6 -22 40 -22c70 0 105 10 146 32z" />
    <glyph glyph-name="gbreve" unicode="&#x11f;" horiz-adv-x="612" 
d="M253 606c-55 0 -80 25 -80 80v55h84v-43c0 -14 4 -18 18 -18h34c14 0 18 4 18 18v43h84v-55c0 -55 -25 -80 -80 -80h-78zM586 540v-102h-72v-468c0 -89 -41 -130 -130 -130h-262v110h232c16 0 22 6 22 22v132c-36 -50 -71 -84 -174 -84c-109 0 -150 41 -150 140v244
c0 99 41 140 150 140c103 0 138 -34 174 -84v80h210zM376 176v212c-41 22 -76 32 -146 32c-34 0 -40 -6 -40 -22v-232c0 -16 6 -22 40 -22c70 0 105 10 146 32z" />
    <glyph glyph-name="gcommaaccent" unicode="&#x123;" horiz-adv-x="612" 
d="M340 762v-146h-140v108c0 29 24 63 48 94l59 78h56l-77 -134h54zM586 540v-102h-72v-468c0 -89 -41 -130 -130 -130h-262v110h232c16 0 22 6 22 22v132c-36 -50 -71 -84 -174 -84c-109 0 -150 41 -150 140v244c0 99 41 140 150 140c103 0 138 -34 174 -84v80h210z
M376 176v212c-41 22 -76 32 -146 32c-34 0 -40 -6 -40 -22v-232c0 -16 6 -22 40 -22c70 0 105 10 146 32z" />
    <glyph glyph-name="gdotaccent" unicode="&#x121;" horiz-adv-x="612" 
d="M357 734v-128h-130v128h130zM586 540v-102h-72v-468c0 -89 -41 -130 -130 -130h-262v110h232c16 0 22 6 22 22v132c-36 -50 -71 -84 -174 -84c-109 0 -150 41 -150 140v244c0 99 41 140 150 140c103 0 138 -34 174 -84v80h210zM376 176v212c-41 22 -76 32 -146 32
c-34 0 -40 -6 -40 -22v-232c0 -16 6 -22 40 -22c70 0 105 10 146 32z" />
    <glyph glyph-name="h" unicode="h" 
d="M560 102h72v-102h-272v102h62v293c0 20 -6 26 -35 26c-67 0 -102 -10 -143 -32v-287h62v-102h-276v102h76v526h-76v102h214v-269c36 50 71 84 170 84c105 0 146 -41 146 -134v-309z" />
    <glyph glyph-name="hbar" unicode="&#x127;" 
d="M560 102h72v-102h-272v102h62v293c0 20 -6 26 -35 26c-67 0 -102 -10 -143 -32v-287h62v-102h-276v102h76v445h-61v52h61v29h-76v102h214v-131h87v-52h-87v-86c36 50 71 84 170 84c105 0 146 -41 146 -134v-309z" />
    <glyph glyph-name="i" unicode="i" horiz-adv-x="368" 
d="M260 730v-130h-146v130h146zM256 102h76v-102h-294v102h80v336h-80v102h218v-438z" />
    <glyph glyph-name="iacute" unicode="&#xed;" horiz-adv-x="368" 
d="M339 730l-149 -144h-116l90 144h175zM256 540v-438h76v-102h-294v102h80v336h-80v102h218z" />
    <glyph glyph-name="icircumflex" unicode="&#xee;" horiz-adv-x="368" 
d="M183 649l-61 -63h-129l130 130h120l130 -130h-129zM256 540v-438h76v-102h-294v102h80v336h-80v102h218z" />
    <glyph glyph-name="idieresis" unicode="&#xef;" horiz-adv-x="368" 
d="M151 726v-128h-130v128h130zM223 726h130v-128h-130v128zM256 540v-438h76v-102h-294v102h80v336h-80v102h218z" />
    <glyph glyph-name="igrave" unicode="&#xec;" horiz-adv-x="368" 
d="M257 586h-116l-149 144h175zM256 102h76v-102h-294v102h80v336h-80v102h218v-438z" />
    <glyph glyph-name="ij" unicode="&#x133;" horiz-adv-x="656" 
d="M260 730v-130h-146v130h146zM452 730h146v-130h-146v130zM256 540v-438h76v-102h-294v102h80v336h-80v102h218zM594 540v-555c0 -85 -42 -111 -130 -129l-105 -22v92l79 42c12 7 18 11 18 24v446h-80v102h218z" />
    <glyph glyph-name="imacron" unicode="&#x12b;" horiz-adv-x="368" 
d="M315 711v-112h-276v112h276zM256 102h76v-102h-294v102h80v336h-80v102h218v-438z" />
    <glyph glyph-name="iogonek" unicode="&#x12f;" horiz-adv-x="368" 
d="M260 730v-130h-146v130h146zM312 -87h39v-93h-68c-67 0 -111 19 -111 79c0 52 33 82 57 101h-191v102h80v336h-80v102h218v-438h76v-102c-41 -23 -52 -44 -52 -61c0 -18 12 -26 32 -26z" />
    <glyph glyph-name="j" unicode="j" horiz-adv-x="318" 
d="M114 730h146v-130h-146v130zM256 540v-555c0 -85 -42 -111 -130 -129l-105 -22v92l79 42c12 7 18 11 18 24v446h-80v102h218z" />
    <glyph glyph-name="k" unicode="k" horiz-adv-x="609" 
d="M522 102h77v-102h-168l-111 223l-78 -92v-29h62v-102h-274v102h76v526h-76v102h212v-443l118 151h-44v102h258v-102h-71l-96 -112z" />
    <glyph glyph-name="kcommaaccent" unicode="&#x137;" horiz-adv-x="609" 
d="M522 102h77v-102h-168l-111 223l-78 -92v-29h62v-102h-274v102h76v526h-76v102h212v-443l118 151h-44v102h258v-102h-71l-96 -112zM261 -216v146h140v-108c0 -29 -24 -63 -48 -94l-59 -78h-56l77 134h-54z" />
    <glyph glyph-name="l" unicode="l" horiz-adv-x="368" 
d="M256 102h76v-102h-294v102h80v526h-80v102h218v-628z" />
    <glyph glyph-name="lacute" unicode="&#x13a;" horiz-adv-x="368" 
d="M377 940l-149 -144h-116l90 144h175zM256 730v-628h76v-102h-294v102h80v526h-80v102h218z" />
    <glyph glyph-name="lcaron" unicode="&#x13e;" horiz-adv-x="459" 
d="M256 730v-628h76v-102h-294v102h80v526h-80v102h218zM303 730h140v-108c0 -29 -24 -63 -48 -94l-59 -78h-56l77 134h-54v146z" />
    <glyph glyph-name="lcommaaccent" unicode="&#x13c;" horiz-adv-x="368" 
d="M256 102h76v-102h-294v102h80v526h-80v102h218v-628zM117 -216v146h140v-108c0 -29 -24 -63 -48 -94l-59 -78h-56l77 134h-54z" />
    <glyph glyph-name="ldot" unicode="&#x140;" horiz-adv-x="478" 
d="M256 730v-628h76v-102h-294v102h80v526h-80v102h218zM328 460h140v-146h-140v146z" />
    <glyph glyph-name="lslash" unicode="&#x142;" horiz-adv-x="368" 
d="M346 398l-93 -38v-258h76v-102h-294v102h80v202l-93 -38v133l93 38v191h-80v102h218v-237l93 38v-133z" />
    <glyph glyph-name="m" unicode="m" horiz-adv-x="960" 
d="M860 102h72v-102h-270v102h60v294c0 20 -6 26 -31 26c-63 0 -98 -10 -139 -32v-288h57v-102h-252v102h57v294c0 20 -6 26 -31 26c-63 0 -98 -10 -139 -32v-288h60v-102h-274v102h76v336h-76v102h214v-78c36 50 71 84 166 84c83 0 126 -28 138 -89c36 52 76 89 170 89
c101 0 142 -41 142 -134v-310z" />
    <glyph glyph-name="n" unicode="n" 
d="M560 102h72v-102h-272v102h62v293c0 20 -6 26 -35 26c-67 0 -102 -10 -143 -32v-287h62v-102h-276v102h76v336h-76v102h214v-79c36 50 71 84 170 84c105 0 146 -41 146 -134v-309z" />
    <glyph glyph-name="nacute" unicode="&#x144;" 
d="M527 750l-149 -144h-116l90 144h175zM560 102h72v-102h-272v102h62v293c0 20 -6 26 -35 26c-67 0 -102 -10 -143 -32v-287h62v-102h-276v102h76v336h-76v102h214v-79c36 50 71 84 170 84c105 0 146 -41 146 -134v-309z" />
    <glyph glyph-name="ncaron" unicode="&#x148;" 
d="M397 606h-120l-130 130h129l61 -63l61 63h129zM560 102h72v-102h-272v102h62v293c0 20 -6 26 -35 26c-67 0 -102 -10 -143 -32v-287h62v-102h-276v102h76v336h-76v102h214v-79c36 50 71 84 170 84c105 0 146 -41 146 -134v-309z" />
    <glyph glyph-name="ncommaaccent" unicode="&#x146;" 
d="M560 102h72v-102h-272v102h62v293c0 20 -6 26 -35 26c-67 0 -102 -10 -143 -32v-287h62v-102h-276v102h76v336h-76v102h214v-79c36 50 71 84 170 84c105 0 146 -41 146 -134v-309zM259 -216v146h140v-108c0 -29 -24 -63 -48 -94l-59 -78h-56l77 134h-54z" />
    <glyph glyph-name="eng" unicode="&#x14b;" horiz-adv-x="616" 
d="M414 545c105 0 146 -41 146 -134v-441c0 -88 -41 -130 -130 -130h-108v120h78c16 0 22 6 22 22v413c0 20 -6 26 -35 26c-67 0 -102 -10 -143 -32v-287h62v-102h-276v102h76v336h-76v102h214v-79c36 50 71 84 170 84z" />
    <glyph glyph-name="ntilde" unicode="&#xf1;" 
d="M248 623v-19h-74v25c0 77 38 112 84 112c60 0 101 -46 143 -46c14 0 21 7 21 21v19h76v-25c0 -77 -32 -112 -78 -112c-55 0 -107 46 -149 46c-14 0 -23 -4 -23 -21zM560 102h72v-102h-272v102h62v293c0 20 -6 26 -35 26c-67 0 -102 -10 -143 -32v-287h62v-102h-276v102
h76v336h-76v102h214v-79c36 50 71 84 170 84c105 0 146 -41 146 -134v-309z" />
    <glyph glyph-name="o" unicode="o" horiz-adv-x="553" 
d="M371 540c89 0 130 -41 130 -130v-280c0 -89 -41 -130 -130 -130h-189c-89 0 -130 41 -130 130v280c0 89 41 130 130 130h189zM363 398c0 16 -6 22 -22 22h-129c-16 0 -22 -6 -22 -22v-256c0 -16 6 -22 22 -22h129c16 0 22 6 22 22v256z" />
    <glyph glyph-name="oacute" unicode="&#xf3;" horiz-adv-x="553" 
d="M467 750l-149 -144h-116l90 144h175zM371 540c89 0 130 -41 130 -130v-280c0 -89 -41 -130 -130 -130h-189c-89 0 -130 41 -130 130v280c0 89 41 130 130 130h189zM363 398c0 16 -6 22 -22 22h-129c-16 0 -22 -6 -22 -22v-256c0 -16 6 -22 22 -22h129c16 0 22 6 22 22
v256z" />
    <glyph glyph-name="ocircumflex" unicode="&#xf4;" horiz-adv-x="553" 
d="M87 606h129l61 63l61 -63h129l-130 130h-120zM371 540c89 0 130 -41 130 -130v-280c0 -89 -41 -130 -130 -130h-189c-89 0 -130 41 -130 130v280c0 89 41 130 130 130h189zM363 398c0 16 -6 22 -22 22h-129c-16 0 -22 -6 -22 -22v-256c0 -16 6 -22 22 -22h129
c16 0 22 6 22 22v256z" />
    <glyph glyph-name="odieresis" unicode="&#xf6;" horiz-adv-x="553" 
d="M241 734v-128h-130v128h130zM443 734v-128h-130v128h130zM371 540c89 0 130 -41 130 -130v-280c0 -89 -41 -130 -130 -130h-189c-89 0 -130 41 -130 130v280c0 89 41 130 130 130h189zM363 398c0 16 -6 22 -22 22h-129c-16 0 -22 -6 -22 -22v-256c0 -16 6 -22 22 -22h129
c16 0 22 6 22 22v256z" />
    <glyph glyph-name="ograve" unicode="&#xf2;" horiz-adv-x="553" 
d="M87 750l149 -144h116l-90 144h-175zM371 540c89 0 130 -41 130 -130v-280c0 -89 -41 -130 -130 -130h-189c-89 0 -130 41 -130 130v280c0 89 41 130 130 130h189zM363 398c0 16 -6 22 -22 22h-129c-16 0 -22 -6 -22 -22v-256c0 -16 6 -22 22 -22h129c16 0 22 6 22 22v256
z" />
    <glyph glyph-name="ohungarumlaut" unicode="&#x151;" horiz-adv-x="553" 
d="M204 751h134l-115 -145h-134zM401 751h134l-115 -145h-134zM371 540c89 0 130 -41 130 -130v-280c0 -89 -41 -130 -130 -130h-189c-89 0 -130 41 -130 130v280c0 89 41 130 130 130h189zM363 398c0 16 -6 22 -22 22h-129c-16 0 -22 -6 -22 -22v-256c0 -16 6 -22 22 -22
h129c16 0 22 6 22 22v256z" />
    <glyph glyph-name="omacron" unicode="&#x14d;" horiz-adv-x="553" 
d="M139 728h276v-112h-276v112zM371 540c89 0 130 -41 130 -130v-280c0 -89 -41 -130 -130 -130h-189c-89 0 -130 41 -130 130v280c0 89 41 130 130 130h189zM363 398c0 16 -6 22 -22 22h-129c-16 0 -22 -6 -22 -22v-256c0 -16 6 -22 22 -22h129c16 0 22 6 22 22v256z" />
    <glyph glyph-name="oslash" unicode="&#xf8;" horiz-adv-x="553" 
d="M432 531c47 -17 69 -56 69 -121v-280c0 -89 -41 -130 -130 -130h-150l-24 -60h-100l27 68c-49 16 -72 56 -72 122v280c0 89 41 130 130 130h154l24 60h100zM190 398v-225l98 247h-76c-16 0 -22 -6 -22 -22zM341 120c16 0 22 6 22 22v215l-94 -237h72z" />
    <glyph glyph-name="otilde" unicode="&#xf5;" horiz-adv-x="553" 
d="M188 623c0 17 9 21 23 21c42 0 94 -46 149 -46c46 0 78 35 78 112v25h-76v-19c0 -14 -7 -21 -21 -21c-42 0 -83 46 -143 46c-46 0 -84 -35 -84 -112v-25h74v19zM371 540c89 0 130 -41 130 -130v-280c0 -89 -41 -130 -130 -130h-189c-89 0 -130 41 -130 130v280
c0 89 41 130 130 130h189zM363 398c0 16 -6 22 -22 22h-129c-16 0 -22 -6 -22 -22v-256c0 -16 6 -22 22 -22h129c16 0 22 6 22 22v256z" />
    <glyph glyph-name="oe" unicode="&#x153;" horiz-adv-x="862" 
d="M505 134c0 -16 6 -22 22 -22h127c16 0 22 6 22 22v42h138v-46c0 -89 -41 -130 -130 -130h-187c-38 0 -54 9 -61 25c-7 -16 -23 -25 -61 -25h-193c-89 0 -130 41 -130 130v280c0 89 41 130 130 130h193c38 0 54 -9 61 -25c7 16 23 25 61 25h187c89 0 130 -41 130 -130
v-179h-309v-97zM505 324h171v82c0 16 -6 22 -22 22h-127c-16 0 -22 -6 -22 -22v-82zM367 398c0 16 -6 22 -22 22h-133c-16 0 -22 -6 -22 -22v-256c0 -16 6 -22 22 -22h133c16 0 22 6 22 22v256z" />
    <glyph glyph-name="p" unicode="p" horiz-adv-x="620" 
d="M418 544c109 0 150 -41 150 -140v-268c0 -99 -41 -140 -150 -140c-103 0 -138 34 -174 84v-138h92v-102h-306v102h76v496h-76v102h214v-80c36 50 71 84 174 84zM430 152v236c0 26 -6 32 -39 32c-71 0 -106 -10 -147 -32v-236c41 -22 76 -32 147 -32c33 0 39 6 39 32z" />
    <glyph glyph-name="thorn" unicode="&#xfe;" horiz-adv-x="620" 
d="M418 544c109 0 150 -41 150 -140v-268c0 -99 -41 -140 -150 -140c-103 0 -138 34 -174 84v-138h92v-102h-306v102h76v686h-76v102h214v-270c36 50 71 84 174 84zM430 152v236c0 26 -6 32 -39 32c-71 0 -106 -10 -147 -32v-236c41 -22 76 -32 147 -32c33 0 39 6 39 32z
" />
    <glyph glyph-name="q" unicode="q" horiz-adv-x="616" 
d="M590 438h-76v-496h76v-102h-306v102h92v138c-36 -50 -71 -84 -174 -84c-109 0 -150 41 -150 140v268c0 99 41 140 150 140c103 0 138 -34 174 -84v80h214v-102zM230 120c71 0 105 10 146 32v236c-41 22 -75 32 -146 32c-33 0 -40 -6 -40 -32v-236c0 -26 7 -32 40 -32z
" />
    <glyph glyph-name="r" unicode="r" horiz-adv-x="455" 
d="M398 540h33v-130h-58c-53 0 -88 -10 -129 -32v-276h92v-102h-306v102h76v336h-76v102h214v-84c36 50 71 84 154 84z" />
    <glyph glyph-name="racute" unicode="&#x155;" horiz-adv-x="455" 
d="M433 750l-149 -144h-116l90 144h175zM244 456c36 50 71 84 154 84h33v-130h-58c-53 0 -88 -10 -129 -32v-276h92v-102h-306v102h76v336h-76v102h214v-84z" />
    <glyph glyph-name="rcaron" unicode="&#x159;" horiz-adv-x="455" 
d="M303 606h-120l-130 130h129l61 -63l61 63h129zM244 456c36 50 71 84 154 84h33v-130h-58c-53 0 -88 -10 -129 -32v-276h92v-102h-306v102h76v336h-76v102h214v-84z" />
    <glyph glyph-name="rcommaaccent" unicode="&#x157;" horiz-adv-x="455" 
d="M398 540h33v-130h-58c-53 0 -88 -10 -129 -32v-276h92v-102h-306v102h76v336h-76v102h214v-84c36 50 71 84 154 84zM105 -216v146h140v-108c0 -29 -24 -63 -48 -94l-59 -78h-56l77 134h-54z" />
    <glyph glyph-name="s" unicode="s" horiz-adv-x="532" 
d="M338 410c0 16 -6 22 -22 22h-105c-16 0 -22 -6 -22 -41c0 -40 4 -46 30 -50l149 -24c86 -14 118 -41 118 -152c0 -124 -41 -165 -130 -165h-180c-89 0 -130 41 -130 130v49h136v-49c0 -16 6 -22 22 -22h124c16 0 22 6 22 46c0 45 -4 51 -30 55l-149 24
c-86 14 -118 41 -118 147c0 119 41 160 130 160h161c89 0 130 -41 130 -130v-40h-136v40z" />
    <glyph glyph-name="sacute" unicode="&#x15b;" horiz-adv-x="532" 
d="M458 750l-149 -144h-116l90 144h175zM338 410c0 16 -6 22 -22 22h-105c-16 0 -22 -6 -22 -41c0 -40 4 -46 30 -50l149 -24c86 -14 118 -41 118 -152c0 -124 -41 -165 -130 -165h-180c-89 0 -130 41 -130 130v49h136v-49c0 -16 6 -22 22 -22h124c16 0 22 6 22 46
c0 45 -4 51 -30 55l-149 24c-86 14 -118 41 -118 147c0 119 41 160 130 160h161c89 0 130 -41 130 -130v-40h-136v40z" />
    <glyph glyph-name="scaron" unicode="&#x161;" horiz-adv-x="532" 
d="M78 736l130 -130h120l130 130h-129l-61 -63l-61 63h-129zM338 410c0 16 -6 22 -22 22h-105c-16 0 -22 -6 -22 -41c0 -40 4 -46 30 -50l149 -24c86 -14 118 -41 118 -152c0 -124 -41 -165 -130 -165h-180c-89 0 -130 41 -130 130v49h136v-49c0 -16 6 -22 22 -22h124
c16 0 22 6 22 46c0 45 -4 51 -30 55l-149 24c-86 14 -118 41 -118 147c0 119 41 160 130 160h161c89 0 130 -41 130 -130v-40h-136v40z" />
    <glyph glyph-name="scedilla" unicode="&#x15f;" horiz-adv-x="532" 
d="M368 317c86 -14 118 -41 118 -152c0 -124 -41 -165 -130 -165h-32v-73c0 -74 -32 -94 -94 -94h-75l-50 78h95c15 0 20 5 20 20v69h-44c-89 0 -130 41 -130 130v49h136v-49c0 -16 6 -22 22 -22h124c16 0 22 6 22 46c0 45 -4 51 -30 55l-149 24c-86 14 -118 41 -118 147
c0 119 41 160 130 160h161c89 0 130 -41 130 -130v-40h-136v40c0 16 -6 22 -22 22h-105c-16 0 -22 -6 -22 -41c0 -40 4 -46 30 -50z" />
    <glyph glyph-name="germandbls" unicode="&#xdf;" horiz-adv-x="612" 
d="M491 374c50 -24 71 -61 71 -174c0 -158 -41 -200 -130 -200h-135v120h103c16 0 22 6 22 98s-6 98 -22 98h-103v116h95c16 0 22 6 22 89s-6 89 -22 89h-130c-16 0 -22 -6 -22 -22v-588h-210v102h72v498c0 89 42 130 130 130h192c89 0 130 -41 130 -191
c0 -104 -17 -138 -63 -165z" />
    <glyph glyph-name="t" unicode="t" horiz-adv-x="406" 
d="M246 428v-292c0 -16 6 -22 22 -22h94v-114h-124c-89 0 -130 41 -130 130v298h-80v112h82v130h134v-130h118v-112h-116z" />
    <glyph glyph-name="tbar" unicode="&#x167;" horiz-adv-x="406" 
d="M362 428h-116v-108h87v-112h-87v-72c0 -16 6 -22 22 -22h94v-114h-124c-89 0 -130 41 -130 130v78h-51v112h51v108h-80v112h82v130h134v-130h118v-112z" />
    <glyph glyph-name="tcaron" unicode="&#x165;" horiz-adv-x="406" 
d="M443 860v-108c0 -39 -13 -64 -48 -104l-69 -78h-56l77 134h-64v156h160zM246 428v-292c0 -16 6 -22 22 -22h94v-114h-124c-89 0 -130 41 -130 130v298h-80v112h82v130h134v-130h118v-112h-116z" />
    <glyph glyph-name="uni0163" unicode="&#x163;" horiz-adv-x="406" 
d="M362 428h-116v-292c0 -16 6 -22 22 -22h94v-187c0 -74 -32 -94 -94 -94h-75l-50 78h95c15 0 20 5 20 20v69h-20c-89 0 -130 41 -130 130v298h-80v112h82v130h134v-130h118v-112z" />
    <glyph glyph-name="u" unicode="u" horiz-adv-x="650" 
d="M552 102h72v-102h-210v79c-36 -50 -71 -84 -170 -84c-105 0 -146 41 -146 134v309h-70v102h208v-391c0 -20 6 -26 35 -26c67 0 102 10 143 32v283h-86v102h224v-438z" />
    <glyph glyph-name="uacute" unicode="&#xfa;" horiz-adv-x="650" 
d="M507 750l-149 -144h-116l90 144h175zM552 102h72v-102h-210v79c-36 -50 -71 -84 -170 -84c-105 0 -146 41 -146 134v309h-70v102h208v-391c0 -20 6 -26 35 -26c67 0 102 10 143 32v283h-86v102h224v-438z" />
    <glyph glyph-name="ucircumflex" unicode="&#xfb;" horiz-adv-x="650" 
d="M317 669l-61 -63h-129l130 130h120l130 -130h-129zM552 102h72v-102h-210v79c-36 -50 -71 -84 -170 -84c-105 0 -146 41 -146 134v309h-70v102h208v-391c0 -20 6 -26 35 -26c67 0 102 10 143 32v283h-86v102h224v-438z" />
    <glyph glyph-name="udieresis" unicode="&#xfc;" horiz-adv-x="650" 
d="M281 734v-128h-130v128h130zM483 734v-128h-130v128h130zM552 102h72v-102h-210v79c-36 -50 -71 -84 -170 -84c-105 0 -146 41 -146 134v309h-70v102h208v-391c0 -20 6 -26 35 -26c67 0 102 10 143 32v283h-86v102h224v-438z" />
    <glyph glyph-name="ugrave" unicode="&#xf9;" horiz-adv-x="650" 
d="M392 606h-116l-149 144h175zM552 102h72v-102h-210v79c-36 -50 -71 -84 -170 -84c-105 0 -146 41 -146 134v309h-70v102h208v-391c0 -20 6 -26 35 -26c67 0 102 10 143 32v283h-86v102h224v-438z" />
    <glyph glyph-name="uhungarumlaut" unicode="&#x171;" horiz-adv-x="650" 
d="M378 751l-115 -145h-134l115 145h134zM460 606h-134l115 145h134zM552 102h72v-102h-210v79c-36 -50 -71 -84 -170 -84c-105 0 -146 41 -146 134v309h-70v102h208v-391c0 -20 6 -26 35 -26c67 0 102 10 143 32v283h-86v102h224v-438z" />
    <glyph glyph-name="umacron" unicode="&#x16b;" horiz-adv-x="650" 
d="M455 728v-112h-276v112h276zM552 102h72v-102h-210v79c-36 -50 -71 -84 -170 -84c-105 0 -146 41 -146 134v309h-70v102h208v-391c0 -20 6 -26 35 -26c67 0 102 10 143 32v283h-86v102h224v-438z" />
    <glyph glyph-name="uogonek" unicode="&#x173;" horiz-adv-x="650" 
d="M604 -87h39v-93h-68c-67 0 -111 19 -111 79c0 52 33 82 57 101h-107v79c-36 -50 -71 -84 -170 -84c-105 0 -146 41 -146 134v309h-70v102h208v-391c0 -20 6 -26 35 -26c67 0 102 10 143 32v283h-86v102h224v-438h72v-102c-41 -23 -52 -44 -52 -61c0 -18 12 -26 32 -26z
" />
    <glyph glyph-name="uring" unicode="&#x16f;" horiz-adv-x="650" 
d="M281 606c-42 0 -60 18 -60 60v60c0 42 18 60 60 60h72c42 0 60 -18 60 -60v-60c0 -42 -18 -60 -60 -60h-72zM283 718v-44c0 -10 2 -12 12 -12h44c10 0 12 2 12 12v44c0 10 -2 12 -12 12h-44c-10 0 -12 -2 -12 -12zM552 102h72v-102h-210v79c-36 -50 -71 -84 -170 -84
c-105 0 -146 41 -146 134v309h-70v102h208v-391c0 -20 6 -26 35 -26c67 0 102 10 143 32v283h-86v102h224v-438z" />
    <glyph glyph-name="v" unicode="v" horiz-adv-x="594" 
d="M578 540v-102h-55l-150 -438h-152l-150 438h-55v102h248v-102h-52l88 -315l88 315h-52v102h242z" />
    <glyph glyph-name="w" unicode="w" horiz-adv-x="850" 
d="M834 540v-102h-54l-118 -438h-144l-88 381l-88 -381h-144l-127 438h-55v102h248v-102h-53l58 -289l94 391h134l94 -391l58 289h-54v102h239z" />
    <glyph glyph-name="wacute" unicode="&#x1e83;" horiz-adv-x="850" 
d="M620 750l-149 -144h-116l90 144h175zM834 540v-102h-54l-118 -438h-144l-88 381l-88 -381h-144l-127 438h-55v102h248v-102h-53l58 -289l94 391h134l94 -391l58 289h-54v102h239z" />
    <glyph glyph-name="wcircumflex" unicode="&#x175;" horiz-adv-x="850" 
d="M430 669l-61 -63h-129l130 130h120l130 -130h-129zM834 540v-102h-54l-118 -438h-144l-88 381l-88 -381h-144l-127 438h-55v102h248v-102h-53l58 -289l94 391h134l94 -391l58 289h-54v102h239z" />
    <glyph glyph-name="wdieresis" unicode="&#x1e85;" horiz-adv-x="850" 
d="M394 734v-128h-130v128h130zM596 734v-128h-130v128h130zM834 540v-102h-54l-118 -438h-144l-88 381l-88 -381h-144l-127 438h-55v102h248v-102h-53l58 -289l94 391h134l94 -391l58 289h-54v102h239z" />
    <glyph glyph-name="wgrave" unicode="&#x1e81;" horiz-adv-x="850" 
d="M505 606h-116l-149 144h175zM834 540v-102h-54l-118 -438h-144l-88 381l-88 -381h-144l-127 438h-55v102h248v-102h-53l58 -289l94 391h134l94 -391l58 289h-54v102h239z" />
    <glyph glyph-name="x" unicode="x" horiz-adv-x="568" 
d="M498 102h54v-102h-240v102h41l-74 125l-74 -125h41v-102h-230v102h53l110 172l-107 164h-54v102h240v-102h-42l71 -121l71 121h-42v102h230v-102h-53l-107 -165z" />
    <glyph glyph-name="y" unicode="y" horiz-adv-x="596" 
d="M580 438h-57l-179 -496h61v-102h-278v102h80l19 58l-154 438h-56v102h248v-102h-51l85 -301l90 301h-50v102h242v-102z" />
    <glyph glyph-name="yacute" unicode="&#xfd;" horiz-adv-x="596" 
d="M491 750l-149 -144h-116l90 144h175zM580 438h-57l-179 -496h61v-102h-278v102h80l19 58l-154 438h-56v102h248v-102h-51l85 -301l90 301h-50v102h242v-102z" />
    <glyph glyph-name="ycircumflex" unicode="&#x177;" horiz-adv-x="596" 
d="M301 669l-61 -63h-129l130 130h120l130 -130h-129zM580 438h-57l-179 -496h61v-102h-278v102h80l19 58l-154 438h-56v102h248v-102h-51l85 -301l90 301h-50v102h242v-102z" />
    <glyph glyph-name="ydieresis" unicode="&#xff;" horiz-adv-x="596" 
d="M265 734v-128h-130v128h130zM467 734v-128h-130v128h130zM580 438h-57l-179 -496h61v-102h-278v102h80l19 58l-154 438h-56v102h248v-102h-51l85 -301l90 301h-50v102h242v-102z" />
    <glyph glyph-name="ygrave" unicode="&#x1ef3;" horiz-adv-x="596" 
d="M376 606h-116l-149 144h175zM580 438h-57l-179 -496h61v-102h-278v102h80l19 58l-154 438h-56v102h248v-102h-51l85 -301l90 301h-50v102h242v-102z" />
    <glyph glyph-name="z" unicode="z" horiz-adv-x="539" 
d="M369 190h128v-190h-455v96l278 336h-135v-82h-128v190h433v-96l-278 -336h157v82z" />
    <glyph glyph-name="zacute" unicode="&#x17a;" horiz-adv-x="539" 
d="M467 750l-149 -144h-116l90 144h175zM369 190h128v-190h-455v96l278 336h-135v-82h-128v190h433v-96l-278 -336h157v82z" />
    <glyph glyph-name="zcaron" unicode="&#x17e;" horiz-adv-x="539" 
d="M337 606h-120l-130 130h129l61 -63l61 63h129zM369 190h128v-190h-455v96l278 336h-135v-82h-128v190h433v-96l-278 -336h157v82z" />
    <glyph glyph-name="zdotaccent" unicode="&#x17c;" horiz-adv-x="539" 
d="M342 734v-128h-130v128h130zM369 190h128v-190h-455v96l278 336h-135v-82h-128v190h433v-96l-278 -336h157v82z" />
    <glyph glyph-name="k.ss01" horiz-adv-x="603" 
d="M515 102h74v-102h-158l-146 220h-43v-118h62v-102h-274v102h76v526h-76v102h212v-394h45l69 102h-32v102h250v-102h-70l-109 -160z" />
    <glyph glyph-name="kcommaaccent.ss01" horiz-adv-x="603" 
d="M515 102h74v-102h-158l-146 220h-43v-118h62v-102h-274v102h76v526h-76v102h212v-394h45l69 102h-32v102h250v-102h-70l-109 -160zM258 -216v146h140v-108c0 -29 -24 -63 -48 -94l-59 -78h-56l77 134h-54z" />
    <glyph glyph-name="ordfeminine" unicode="&#xaa;" horiz-adv-x="433" 
d="M353 425h48v-76h-137v49c-16 -27 -37 -52 -99 -52c-77 0 -106 29 -106 105c0 75 31 94 97 104c44 7 71 8 108 10v45c0 9 -3 12 -12 12h-84c-9 0 -12 -3 -12 -12v-22h-86v22c0 62 28 90 90 90h103c61 0 90 -28 90 -90v-185zM265 450v64l-105 -20c-9 -2 -12 -3 -12 -33
s3 -33 29 -33c47 0 68 9 88 22zM67 218v77h334v-77h-334z" />
    <glyph glyph-name="ordmasculine" unicode="&#xba;" horiz-adv-x="412" 
d="M263 700c61 0 90 -28 90 -90v-171c0 -61 -28 -90 -90 -90h-114c-61 0 -90 29 -90 90v171c0 61 28 90 90 90h114zM264 607c0 9 -3 12 -12 12h-92c-9 0 -12 -3 -12 -12v-165c0 -9 3 -12 12 -12h92c9 0 12 3 12 12v165zM67 295h278v-77h-278v77z" />
    <glyph glyph-name="zero" unicode="0" horiz-adv-x="645" 
d="M208 0c-95 0 -140 45 -140 140v420c0 95 45 140 140 140h229c95 0 140 -45 140 -140v-420c0 -91 -45 -140 -140 -140h-229zM212 152c0 -15 5 -20 20 -20h181c15 0 20 5 20 20v396c0 15 -5 20 -20 20h-181c-15 0 -20 -5 -20 -20v-396z" />
    <glyph glyph-name="one" unicode="1" horiz-adv-x="511" 
d="M339 118h152v-118h-454v118h158v439l-165 -63v130l195 76h114v-582z" />
    <glyph glyph-name="two" unicode="2" horiz-adv-x="610" 
d="M552 246v-246h-490v236c0 83 57 111 144 144l156 60c31 12 40 16 40 40v68c0 15 -5 20 -20 20h-152c-15 0 -20 -5 -20 -20v-66h-140v78c0 95 45 140 140 140h196c95 0 140 -45 140 -140v-112c0 -83 -57 -111 -144 -144l-156 -60c-31 -12 -40 -16 -40 -40v-72h216v114h130
z" />
    <glyph glyph-name="three" unicode="3" horiz-adv-x="606" 
d="M192 150c0 -15 5 -20 20 -20h178c15 0 20 5 20 82s-5 82 -20 82h-169v128h161c15 0 20 5 20 74s-5 74 -20 74h-162c-15 0 -20 -5 -20 -20v-66h-144v76c0 95 45 140 140 140h210c95 0 140 -45 140 -187c0 -92 -17 -128 -63 -155c50 -24 71 -63 71 -163
c0 -150 -45 -195 -140 -195h-226c-95 0 -140 45 -140 140v76h144v-66z" />
    <glyph glyph-name="four" unicode="4" horiz-adv-x="634" 
d="M600 193h-78v-75h78v-118h-302v118h84v75h-328l-30 103l346 404h152v-388h78v-119zM194 312h188v215z" />
    <glyph glyph-name="five" unicode="5" horiz-adv-x="606" 
d="M218 568v-191c36 50 69 84 169 84c116 0 161 -45 161 -140v-177c0 -95 -49 -144 -144 -144h-200c-95 0 -140 45 -140 140v77h144v-65c0 -15 5 -20 20 -20h156c15 0 20 5 20 20v161c0 15 -5 20 -41 20c-71 0 -103 -11 -145 -33l-144 36v364h454v-132h-310z" />
    <glyph glyph-name="six" unicode="6" horiz-adv-x="620" 
d="M402 548c0 13 -7 20 -20 20h-150c-13 0 -20 -7 -20 -20v-190c36 50 69 84 176 84c121 0 166 -45 166 -140v-162c0 -95 -45 -140 -140 -140h-206c-95 0 -140 45 -140 140v420c0 95 45 140 140 140h198c95 0 140 -45 140 -140v-66h-144v54zM212 152c0 -15 5 -20 20 -20h158
c15 0 20 5 20 20v142c0 15 -5 20 -47 20c-77 0 -109 -11 -151 -33v-129z" />
    <glyph glyph-name="seven" unicode="7" horiz-adv-x="586" 
d="M558 700v-103l-265 -597h-154l253 570h-226v-116h-130v246h522z" />
    <glyph glyph-name="eight" unicode="8" horiz-adv-x="618" 
d="M558 513c0 -90 -17 -128 -63 -155c50 -24 71 -65 71 -163c0 -150 -45 -195 -140 -195h-234c-95 0 -140 45 -140 195c0 98 21 139 71 163c-46 27 -63 65 -63 155c0 142 45 187 140 187h218c95 0 140 -45 140 -187zM224 570c-15 0 -20 -5 -20 -75s5 -75 20 -75h170
c15 0 20 5 20 75s-5 75 -20 75h-170zM216 294c-15 0 -20 -5 -20 -82s5 -82 20 -82h186c15 0 20 5 20 82s-5 82 -20 82h-186z" />
    <glyph glyph-name="nine" unicode="9" horiz-adv-x="620" 
d="M218 152c0 -13 7 -20 20 -20h150c13 0 20 7 20 20v186c-36 -50 -69 -84 -176 -84c-121 0 -166 45 -166 140v166c0 95 45 140 140 140h206c95 0 140 -45 140 -140v-420c0 -95 -45 -140 -140 -140h-198c-95 0 -140 45 -140 140v66h144v-54zM408 548c0 15 -5 20 -20 20h-158
c-15 0 -20 -5 -20 -20v-146c0 -15 5 -20 47 -20c77 0 109 11 151 33v133z" />
    <glyph glyph-name="three.ss01" horiz-adv-x="604" 
d="M192 216v-66c0 -15 5 -20 20 -20h176c15 0 20 5 20 20v124c0 15 -5 20 -20 20h-167v128h159c15 0 20 5 20 20v108c0 15 -5 20 -20 20h-160c-15 0 -20 -5 -20 -20v-66h-144v76c0 95 45 140 140 140h208c95 0 140 -45 140 -140v-94c0 -49 -17 -83 -63 -108
c50 -22 71 -59 71 -108v-110c0 -95 -45 -140 -140 -140h-224c-95 0 -140 45 -140 140v76h144z" />
    <glyph glyph-name="eight.ss01" horiz-adv-x="624" 
d="M501 358c50 -22 71 -59 71 -108v-110c0 -95 -45 -140 -140 -140h-240c-95 0 -140 45 -140 140v110c0 49 21 86 71 108c-46 25 -63 59 -63 108v94c0 95 45 140 140 140h224c95 0 140 -45 140 -140v-94c0 -49 -17 -83 -63 -108zM204 442c0 -15 5 -20 20 -20h176
c15 0 20 5 20 20v108c0 15 -5 20 -20 20h-176c-15 0 -20 -5 -20 -20v-108zM428 274c0 15 -5 20 -20 20h-192c-15 0 -20 -5 -20 -20v-124c0 -15 5 -20 20 -20h192c15 0 20 5 20 20v124z" />
    <glyph glyph-name="zero.subs" horiz-adv-x="403" 
d="M137 -126c-62 0 -90 27 -90 90v216c0 62 28 90 90 90h129c62 0 90 -27 90 -90v-216c0 -62 -27 -90 -90 -90h-129zM142 -24c0 -10 2 -12 12 -12h95c10 0 12 2 12 12v192c0 10 -2 12 -12 12h-95c-10 0 -12 -2 -12 -12v-192z" />
    <glyph glyph-name="one.subs" horiz-adv-x="320" 
d="M207 -48h88v-78h-270v78h88v220l-86 -24v77l106 45h74v-318z" />
    <glyph glyph-name="two.subs" horiz-adv-x="385" 
d="M47 146h91v22c0 10 2 12 12 12h89c10 0 12 -2 12 -12v-24c0 -10 -10 -14 -20 -17l-103 -28c-44 -11 -86 -27 -86 -79v-146h305v140h-88v-50h-122v31c0 10 8 14 20 17l103 28c35 9 86 26 86 79v61c0 63 -27 90 -90 90h-119c-62 0 -90 -27 -90 -90v-34z" />
    <glyph glyph-name="three.subs" horiz-adv-x="385" 
d="M132 -3c0 -34 2 -36 12 -36h91c10 0 12 2 12 36c0 35 -2 37 -12 37h-91v83h86c10 0 12 2 12 33s-2 33 -12 33h-82c-10 0 -12 -2 -12 -33v-5h-94v11c0 86 28 114 90 114h114c62 0 90 -27 90 -114c0 -50 -8 -65 -37 -80c31 -14 42 -32 42 -86c0 -88 -27 -116 -90 -116h-124
c-63 0 -90 27 -90 116v9h95v-2z" />
    <glyph glyph-name="four.subs" horiz-adv-x="432" 
d="M398 -14h-60v-34h60v-78h-237v78h85v34h-194l-21 50l229 234h78v-211h60v-73zM157 59h89v88z" />
    <glyph glyph-name="five.subs" horiz-adv-x="394" 
d="M339 270v-90h-195v-89c26 29 51 43 118 43c63 0 90 -27 90 -90v-80c0 -62 -27 -90 -90 -90h-129c-62 0 -90 27 -90 90v33h95v-21c0 -10 2 -12 12 -12h96c10 0 12 2 12 12v63c0 10 -2 12 -12 12c-57 0 -81 -6 -102 -13l-95 27v205h290z" />
    <glyph glyph-name="six.subs" horiz-adv-x="401" 
d="M257 168c0 10 -2 12 -12 12h-91c-10 0 -12 -2 -12 -12v-88c26 29 51 44 124 44c63 0 90 -27 90 -90v-70c0 -62 -27 -90 -90 -90h-129c-62 0 -90 27 -90 90v216c0 62 28 90 90 90h125c63 0 90 -27 90 -90v-27h-95v15zM142 -24c0 -10 2 -12 12 -12h96c10 0 12 2 12 12v56
c0 10 -2 12 -12 12c-63 0 -87 -6 -108 -13v-55z" />
    <glyph glyph-name="seven.subs" horiz-adv-x="371" 
d="M340 270v-73l-173 -323h-104l165 306h-113v-66h-88v156h313z" />
    <glyph glyph-name="eight.subs" horiz-adv-x="396" 
d="M347 158c0 -48 -9 -67 -38 -82c32 -14 43 -34 43 -85c0 -89 -27 -117 -90 -117h-128c-63 0 -90 27 -90 117c0 51 11 71 42 85c-29 15 -37 34 -37 82c0 84 28 112 90 112h118c62 0 90 -27 90 -112zM155 183c-10 0 -12 -2 -12 -33s2 -33 12 -33h85c10 0 12 2 12 33
s-2 33 -12 33h-85zM151 34c-10 0 -12 -2 -12 -36c0 -35 2 -37 12 -37h94c10 0 12 2 12 37c0 34 -2 36 -12 36h-94z" />
    <glyph glyph-name="nine.subs" horiz-adv-x="401" 
d="M145 -24c0 -10 2 -12 12 -12h91c10 0 12 2 12 12v88c-26 -29 -51 -44 -124 -44c-63 0 -90 27 -90 90v70c0 62 27 90 90 90h129c62 0 90 -27 90 -90v-216c0 -62 -28 -90 -90 -90h-125c-63 0 -90 27 -90 90v27h95v-15zM260 168c0 10 -2 12 -12 12h-96c-10 0 -12 -2 -12 -12
v-56c0 -10 2 -12 12 -12c63 0 87 6 108 13v55z" />
    <glyph glyph-name="zero.tf" 
d="M215 0c-95 0 -140 45 -140 140v420c0 95 45 140 140 140h229c95 0 140 -45 140 -140v-420c0 -91 -45 -140 -140 -140h-229zM219 152c0 -15 5 -20 20 -20h181c15 0 20 5 20 20v396c0 15 -5 20 -20 20h-181c-15 0 -20 -5 -20 -20v-396z" />
    <glyph glyph-name="one.tf" 
d="M561 132v-132h-450v132h159v428l-159 -50v140l158 50h145v-568h147z" />
    <glyph glyph-name="two.tf" 
d="M578 246v-246h-490v236c0 83 57 111 144 144l156 60c31 12 40 16 40 40v68c0 15 -5 20 -20 20h-152c-15 0 -20 -5 -20 -20v-66h-140v78c0 95 45 140 140 140h196c95 0 140 -45 140 -140v-112c0 -83 -57 -111 -144 -144l-156 -60c-31 -12 -40 -16 -40 -40v-72h216v114h130
z" />
    <glyph glyph-name="three.tf" 
d="M222 150c0 -15 5 -20 20 -20h178c15 0 20 5 20 82s-5 82 -20 82h-169v128h161c15 0 20 5 20 74s-5 74 -20 74h-162c-15 0 -20 -5 -20 -20v-66h-144v76c0 95 45 140 140 140h210c95 0 140 -45 140 -187c0 -92 -17 -128 -63 -155c50 -24 71 -63 71 -163
c0 -150 -45 -195 -140 -195h-226c-95 0 -140 45 -140 140v76h144v-66z" />
    <glyph glyph-name="four.tf" 
d="M607 193h-78v-75h78v-118h-302v118h84v75h-328l-30 103l346 404h152v-388h78v-119zM201 312h188v215z" />
    <glyph glyph-name="five.tf" 
d="M244 568v-191c36 50 69 84 169 84c116 0 161 -45 161 -140v-177c0 -95 -49 -144 -144 -144h-200c-95 0 -140 45 -140 140v77h144v-65c0 -15 5 -20 20 -20h156c15 0 20 5 20 20v161c0 15 -5 20 -41 20c-71 0 -103 -11 -145 -33l-144 36v364h454v-132h-310z" />
    <glyph glyph-name="six.tf" 
d="M423 548c0 13 -7 20 -20 20h-150c-13 0 -20 -7 -20 -20v-190c36 50 69 84 176 84c121 0 166 -45 166 -140v-162c0 -95 -45 -140 -140 -140h-206c-95 0 -140 45 -140 140v420c0 95 45 140 140 140h198c95 0 140 -45 140 -140v-66h-144v54zM233 152c0 -15 5 -20 20 -20h158
c15 0 20 5 20 20v142c0 15 -5 20 -47 20c-77 0 -109 -11 -151 -33v-129z" />
    <glyph glyph-name="seven.tf" 
d="M603 700v-103l-271 -597h-154l259 570h-238v-116h-130v246h534z" />
    <glyph glyph-name="eight.tf" 
d="M579 513c0 -90 -17 -128 -63 -155c50 -24 71 -65 71 -163c0 -150 -45 -195 -140 -195h-234c-95 0 -140 45 -140 195c0 98 21 139 71 163c-46 27 -63 65 -63 155c0 142 45 187 140 187h218c95 0 140 -45 140 -187zM245 570c-15 0 -20 -5 -20 -75s5 -75 20 -75h170
c15 0 20 5 20 75s-5 75 -20 75h-170zM237 294c-15 0 -20 -5 -20 -82s5 -82 20 -82h186c15 0 20 5 20 82s-5 82 -20 82h-186z" />
    <glyph glyph-name="nine.tf" 
d="M237 152c0 -13 7 -20 20 -20h150c13 0 20 7 20 20v186c-36 -50 -69 -84 -176 -84c-121 0 -166 45 -166 140v166c0 95 45 140 140 140h206c95 0 140 -45 140 -140v-420c0 -95 -45 -140 -140 -140h-198c-95 0 -140 45 -140 140v66h144v-54zM427 548c0 15 -5 20 -20 20h-158
c-15 0 -20 -5 -20 -20v-146c0 -15 5 -20 47 -20c77 0 109 11 151 33v133z" />
    <glyph glyph-name="fraction" unicode="&#x2044;" horiz-adv-x="236" 
d="M274 700h100l-412 -700h-100z" />
    <glyph glyph-name="onehalf" unicode="&#xbd;" horiz-adv-x="941" 
d="M295 306h-270v78h88v220l-86 -24v77l106 45h74v-318h88v-78zM594 700h100l-412 -700h-100zM815 140h88v-140h-305v146c0 52 42 68 86 79l103 28c10 3 20 7 20 17v24c0 10 -2 12 -12 12h-89c-10 0 -12 -2 -12 -12v-22h-91v34c0 63 28 90 90 90h119c63 0 90 -27 90 -90v-61
c0 -53 -51 -70 -86 -79l-103 -28c-12 -3 -20 -7 -20 -17v-31h122v50z" />
    <glyph glyph-name="onequarter" unicode="&#xbc;" horiz-adv-x="928" 
d="M295 306h-270v78h88v220l-86 -24v77l106 45h74v-318h88v-78zM594 700h100l-412 -700h-100zM894 112h-60v-34h60v-78h-237v78h85v34h-194l-21 50l229 234h78v-211h60v-73zM653 185h89v88z" />
    <glyph glyph-name="threequarters" unicode="&#xbe;" horiz-adv-x="993" 
d="M341 420c0 -88 -27 -116 -90 -116h-124c-63 0 -90 27 -90 116v9h95v-2c0 -34 2 -36 12 -36h91c10 0 12 2 12 36c0 35 -2 37 -12 37h-91v83h86c10 0 12 2 12 33s-2 33 -12 33h-82c-10 0 -12 -2 -12 -33v-5h-94v11c0 86 28 114 90 114h114c62 0 90 -27 90 -114
c0 -50 -8 -65 -37 -80c31 -14 42 -32 42 -86zM659 700h100l-412 -700h-100zM959 112h-60v-34h60v-78h-237v78h85v34h-194l-21 50l229 234h78v-211h60v-73zM718 185h89v88z" />
    <glyph glyph-name="oneeighth" unicode="&#x215b;" horiz-adv-x="952" 
d="M295 306h-270v78h88v220l-86 -24v77l106 45h74v-318h88v-78zM594 700h100l-412 -700h-100zM865 202c32 -14 43 -34 43 -85c0 -89 -27 -117 -90 -117h-128c-63 0 -90 27 -90 117c0 51 11 71 42 85c-29 15 -37 34 -37 82c0 84 28 112 90 112h118c62 0 90 -27 90 -112
c0 -48 -9 -67 -38 -82zM711 309c-10 0 -12 -2 -12 -33s2 -33 12 -33h85c10 0 12 2 12 33s-2 33 -12 33h-85zM801 87c10 0 12 2 12 37c0 34 -2 36 -12 36h-94c-10 0 -12 -2 -12 -36c0 -35 2 -37 12 -37h94z" />
    <glyph glyph-name="threeeighths" unicode="&#x215c;" horiz-adv-x="1017" 
d="M132 427c0 -34 2 -36 12 -36h91c10 0 12 2 12 36c0 35 -2 37 -12 37h-91v83h86c10 0 12 2 12 33s-2 33 -12 33h-82c-10 0 -12 -2 -12 -33v-5h-94v11c0 86 28 114 90 114h114c62 0 90 -27 90 -114c0 -50 -8 -65 -37 -80c31 -14 42 -32 42 -86c0 -88 -27 -116 -90 -116
h-124c-63 0 -90 27 -90 116v9h95v-2zM659 700h100l-412 -700h-100zM968 284c0 -48 -9 -67 -38 -82c32 -14 43 -34 43 -85c0 -89 -27 -117 -90 -117h-128c-63 0 -90 27 -90 117c0 51 11 71 42 85c-29 15 -37 34 -37 82c0 84 28 112 90 112h118c62 0 90 -27 90 -112zM776 309
c-10 0 -12 -2 -12 -33s2 -33 12 -33h85c10 0 12 2 12 33s-2 33 -12 33h-85zM772 160c-10 0 -12 -2 -12 -36c0 -35 2 -37 12 -37h94c10 0 12 2 12 37c0 34 -2 36 -12 36h-94z" />
    <glyph glyph-name="fiveeighths" unicode="&#x215d;" horiz-adv-x="1026" 
d="M339 700v-90h-195v-89c26 29 51 43 118 43c63 0 90 -27 90 -90v-80c0 -62 -27 -90 -90 -90h-129c-62 0 -90 27 -90 90v33h95v-21c0 -10 2 -12 12 -12h96c10 0 12 2 12 12v63c0 10 -2 12 -12 12c-57 0 -81 -6 -102 -13l-95 27v205h290zM668 700h100l-412 -700h-100z
M977 284c0 -48 -9 -67 -38 -82c32 -14 43 -34 43 -85c0 -89 -27 -117 -90 -117h-128c-63 0 -90 27 -90 117c0 51 11 71 42 85c-29 15 -37 34 -37 82c0 84 28 112 90 112h118c62 0 90 -27 90 -112zM785 309c-10 0 -12 -2 -12 -33s2 -33 12 -33h85c10 0 12 2 12 33
s-2 33 -12 33h-85zM781 160c-10 0 -12 -2 -12 -36c0 -35 2 -37 12 -37h94c10 0 12 2 12 37c0 34 -2 36 -12 36h-94z" />
    <glyph glyph-name="seveneighths" unicode="&#x215e;" horiz-adv-x="923" 
d="M63 304l165 306h-113v-66h-88v156h313v-73l-173 -323h-104zM565 700h100l-412 -700h-100zM836 202c32 -14 43 -34 43 -85c0 -89 -27 -117 -90 -117h-128c-63 0 -90 27 -90 117c0 51 11 71 42 85c-29 15 -37 34 -37 82c0 84 28 112 90 112h118c62 0 90 -27 90 -112
c0 -48 -9 -67 -38 -82zM682 309c-10 0 -12 -2 -12 -33s2 -33 12 -33h85c10 0 12 2 12 33s-2 33 -12 33h-85zM772 87c10 0 12 2 12 37c0 34 -2 36 -12 36h-94c-10 0 -12 -2 -12 -36c0 -35 2 -37 12 -37h94z" />
    <glyph glyph-name="zero.dnom" horiz-adv-x="403" 
d="M137 0c-62 0 -90 27 -90 90v216c0 62 28 90 90 90h129c62 0 90 -27 90 -90v-216c0 -62 -27 -90 -90 -90h-129zM142 102c0 -10 2 -12 12 -12h95c10 0 12 2 12 12v192c0 10 -2 12 -12 12h-95c-10 0 -12 -2 -12 -12v-192z" />
    <glyph glyph-name="one.dnom" horiz-adv-x="320" 
d="M207 78h88v-78h-270v78h88v220l-86 -24v77l106 45h74v-318z" />
    <glyph glyph-name="two.dnom" horiz-adv-x="385" 
d="M47 272h91v22c0 10 2 12 12 12h89c10 0 12 -2 12 -12v-24c0 -10 -10 -14 -20 -17l-103 -28c-44 -11 -86 -27 -86 -79v-146h305v140h-88v-50h-122v31c0 10 8 14 20 17l103 28c35 9 86 26 86 79v61c0 63 -27 90 -90 90h-119c-62 0 -90 -27 -90 -90v-34z" />
    <glyph glyph-name="three.dnom" horiz-adv-x="385" 
d="M132 123c0 -34 2 -36 12 -36h91c10 0 12 2 12 36c0 35 -2 37 -12 37h-91v83h86c10 0 12 2 12 33s-2 33 -12 33h-82c-10 0 -12 -2 -12 -33v-5h-94v11c0 86 28 114 90 114h114c62 0 90 -27 90 -114c0 -50 -8 -65 -37 -80c31 -14 42 -32 42 -86c0 -88 -27 -116 -90 -116
h-124c-63 0 -90 27 -90 116v9h95v-2z" />
    <glyph glyph-name="four.dnom" horiz-adv-x="432" 
d="M398 112h-60v-34h60v-78h-237v78h85v34h-194l-21 50l229 234h78v-211h60v-73zM157 185h89v88z" />
    <glyph glyph-name="five.dnom" horiz-adv-x="394" 
d="M339 396v-90h-195v-89c26 29 51 43 118 43c63 0 90 -27 90 -90v-80c0 -62 -27 -90 -90 -90h-129c-62 0 -90 27 -90 90v33h95v-21c0 -10 2 -12 12 -12h96c10 0 12 2 12 12v63c0 10 -2 12 -12 12c-57 0 -81 -6 -102 -13l-95 27v205h290z" />
    <glyph glyph-name="six.dnom" horiz-adv-x="401" 
d="M257 294c0 10 -2 12 -12 12h-91c-10 0 -12 -2 -12 -12v-88c26 29 51 44 124 44c63 0 90 -27 90 -90v-70c0 -62 -27 -90 -90 -90h-129c-62 0 -90 27 -90 90v216c0 62 28 90 90 90h125c63 0 90 -27 90 -90v-27h-95v15zM142 102c0 -10 2 -12 12 -12h96c10 0 12 2 12 12v56
c0 10 -2 12 -12 12c-63 0 -87 -6 -108 -13v-55z" />
    <glyph glyph-name="seven.dnom" horiz-adv-x="371" 
d="M340 396v-73l-173 -323h-104l165 306h-113v-66h-88v156h313z" />
    <glyph glyph-name="eight.dnom" horiz-adv-x="396" 
d="M347 284c0 -48 -9 -67 -38 -82c32 -14 43 -34 43 -85c0 -89 -27 -117 -90 -117h-128c-63 0 -90 27 -90 117c0 51 11 71 42 85c-29 15 -37 34 -37 82c0 84 28 112 90 112h118c62 0 90 -27 90 -112zM155 309c-10 0 -12 -2 -12 -33s2 -33 12 -33h85c10 0 12 2 12 33
s-2 33 -12 33h-85zM151 160c-10 0 -12 -2 -12 -36c0 -35 2 -37 12 -37h94c10 0 12 2 12 37c0 34 -2 36 -12 36h-94z" />
    <glyph glyph-name="nine.dnom" horiz-adv-x="401" 
d="M145 102c0 -10 2 -12 12 -12h91c10 0 12 2 12 12v88c-26 -29 -51 -44 -124 -44c-63 0 -90 27 -90 90v70c0 62 27 90 90 90h129c62 0 90 -27 90 -90v-216c0 -62 -28 -90 -90 -90h-125c-63 0 -90 27 -90 90v27h95v-15zM260 294c0 10 -2 12 -12 12h-96c-10 0 -12 -2 -12 -12
v-56c0 -10 2 -12 12 -12c63 0 87 6 108 13v55z" />
    <glyph glyph-name="zero.numr" horiz-adv-x="403" 
d="M137 304c-62 0 -90 27 -90 90v216c0 62 28 90 90 90h129c62 0 90 -27 90 -90v-216c0 -62 -27 -90 -90 -90h-129zM142 406c0 -10 2 -12 12 -12h95c10 0 12 2 12 12v192c0 10 -2 12 -12 12h-95c-10 0 -12 -2 -12 -12v-192z" />
    <glyph glyph-name="one.numr" horiz-adv-x="320" 
d="M207 384h88v-78h-270v78h88v220l-86 -24v77l106 45h74v-318z" />
    <glyph glyph-name="two.numr" horiz-adv-x="385" 
d="M47 576h91v22c0 10 2 12 12 12h89c10 0 12 -2 12 -12v-24c0 -10 -10 -14 -20 -17l-103 -28c-44 -11 -86 -27 -86 -79v-146h305v140h-88v-50h-122v31c0 10 8 14 20 17l103 28c35 9 86 26 86 79v61c0 63 -27 90 -90 90h-119c-62 0 -90 -27 -90 -90v-34z" />
    <glyph glyph-name="three.numr" horiz-adv-x="385" 
d="M132 427c0 -34 2 -36 12 -36h91c10 0 12 2 12 36c0 35 -2 37 -12 37h-91v83h86c10 0 12 2 12 33s-2 33 -12 33h-82c-10 0 -12 -2 -12 -33v-5h-94v11c0 86 28 114 90 114h114c62 0 90 -27 90 -114c0 -50 -8 -65 -37 -80c31 -14 42 -32 42 -86c0 -88 -27 -116 -90 -116
h-124c-63 0 -90 27 -90 116v9h95v-2z" />
    <glyph glyph-name="four.numr" horiz-adv-x="432" 
d="M398 416h-60v-34h60v-78h-237v78h85v34h-194l-21 50l229 234h78v-211h60v-73zM157 489h89v88z" />
    <glyph glyph-name="five.numr" horiz-adv-x="394" 
d="M339 700v-90h-195v-89c26 29 51 43 118 43c63 0 90 -27 90 -90v-80c0 -62 -27 -90 -90 -90h-129c-62 0 -90 27 -90 90v33h95v-21c0 -10 2 -12 12 -12h96c10 0 12 2 12 12v63c0 10 -2 12 -12 12c-57 0 -81 -6 -102 -13l-95 27v205h290z" />
    <glyph glyph-name="six.numr" horiz-adv-x="401" 
d="M257 598c0 10 -2 12 -12 12h-91c-10 0 -12 -2 -12 -12v-88c26 29 51 44 124 44c63 0 90 -27 90 -90v-70c0 -62 -27 -90 -90 -90h-129c-62 0 -90 27 -90 90v216c0 62 28 90 90 90h125c63 0 90 -27 90 -90v-27h-95v15zM142 406c0 -10 2 -12 12 -12h96c10 0 12 2 12 12v56
c0 10 -2 12 -12 12c-63 0 -87 -6 -108 -13v-55z" />
    <glyph glyph-name="seven.numr" horiz-adv-x="371" 
d="M340 700v-73l-173 -323h-104l165 306h-113v-66h-88v156h313z" />
    <glyph glyph-name="eight.numr" horiz-adv-x="396" 
d="M347 588c0 -48 -9 -67 -38 -82c32 -14 43 -34 43 -85c0 -89 -27 -117 -90 -117h-128c-63 0 -90 27 -90 117c0 51 11 71 42 85c-29 15 -37 34 -37 82c0 84 28 112 90 112h118c62 0 90 -27 90 -112zM155 613c-10 0 -12 -2 -12 -33s2 -33 12 -33h85c10 0 12 2 12 33
s-2 33 -12 33h-85zM151 464c-10 0 -12 -2 -12 -36c0 -35 2 -37 12 -37h94c10 0 12 2 12 37c0 34 -2 36 -12 36h-94z" />
    <glyph glyph-name="nine.numr" horiz-adv-x="401" 
d="M145 406c0 -10 2 -12 12 -12h91c10 0 12 2 12 12v88c-26 -29 -51 -44 -124 -44c-63 0 -90 27 -90 90v70c0 62 27 90 90 90h129c62 0 90 -27 90 -90v-216c0 -62 -28 -90 -90 -90h-125c-63 0 -90 27 -90 90v27h95v-15zM260 598c0 10 -2 12 -12 12h-96c-10 0 -12 -2 -12 -12
v-56c0 -10 2 -12 12 -12c63 0 87 6 108 13v55z" />
    <glyph glyph-name="uni2070" unicode="&#x2070;" horiz-adv-x="403" 
d="M137 414c-62 0 -90 27 -90 90v216c0 62 28 90 90 90h129c62 0 90 -27 90 -90v-216c0 -62 -27 -90 -90 -90h-129zM142 516c0 -10 2 -12 12 -12h95c10 0 12 2 12 12v192c0 10 -2 12 -12 12h-95c-10 0 -12 -2 -12 -12v-192z" />
    <glyph glyph-name="uni00B9" unicode="&#xb9;" horiz-adv-x="320" 
d="M207 492h88v-78h-270v78h88v220l-86 -24v77l106 45h74v-318z" />
    <glyph glyph-name="uni00B2" unicode="&#xb2;" horiz-adv-x="385" 
d="M47 686h91v22c0 10 2 12 12 12h89c10 0 12 -2 12 -12v-24c0 -10 -10 -14 -20 -17l-103 -28c-44 -11 -86 -27 -86 -79v-146h305v140h-88v-50h-122v31c0 10 8 14 20 17l103 28c35 9 86 26 86 79v61c0 63 -27 90 -90 90h-119c-62 0 -90 -27 -90 -90v-34z" />
    <glyph glyph-name="uni00B3" unicode="&#xb3;" horiz-adv-x="385" 
d="M132 537c0 -34 2 -36 12 -36h91c10 0 12 2 12 36c0 35 -2 37 -12 37h-91v83h86c10 0 12 2 12 33s-2 33 -12 33h-82c-10 0 -12 -2 -12 -33v-5h-94v11c0 86 28 114 90 114h114c62 0 90 -27 90 -114c0 -50 -8 -65 -37 -80c31 -14 42 -32 42 -86c0 -88 -27 -116 -90 -116
h-124c-63 0 -90 27 -90 116v9h95v-2z" />
    <glyph glyph-name="uni2074" unicode="&#x2074;" horiz-adv-x="432" 
d="M398 526h-60v-34h60v-78h-237v78h85v34h-194l-21 50l229 234h78v-211h60v-73zM157 599h89v88z" />
    <glyph glyph-name="uni2075" unicode="&#x2075;" horiz-adv-x="394" 
d="M339 810v-90h-195v-89c26 29 51 43 118 43c63 0 90 -27 90 -90v-80c0 -62 -27 -90 -90 -90h-129c-62 0 -90 27 -90 90v33h95v-21c0 -10 2 -12 12 -12h96c10 0 12 2 12 12v63c0 10 -2 12 -12 12c-57 0 -81 -6 -102 -13l-95 27v205h290z" />
    <glyph glyph-name="uni2076" unicode="&#x2076;" horiz-adv-x="401" 
d="M257 708c0 10 -2 12 -12 12h-91c-10 0 -12 -2 -12 -12v-88c26 29 51 44 124 44c63 0 90 -27 90 -90v-70c0 -62 -27 -90 -90 -90h-129c-62 0 -90 27 -90 90v216c0 62 28 90 90 90h125c63 0 90 -27 90 -90v-27h-95v15zM142 516c0 -10 2 -12 12 -12h96c10 0 12 2 12 12v56
c0 10 -2 12 -12 12c-63 0 -87 -6 -108 -13v-55z" />
    <glyph glyph-name="uni2077" unicode="&#x2077;" horiz-adv-x="371" 
d="M340 810v-73l-173 -323h-104l165 306h-113v-66h-88v156h313z" />
    <glyph glyph-name="uni2078" unicode="&#x2078;" horiz-adv-x="396" 
d="M347 698c0 -48 -9 -67 -38 -82c32 -14 43 -34 43 -85c0 -89 -27 -117 -90 -117h-128c-63 0 -90 27 -90 117c0 51 11 71 42 85c-29 15 -37 34 -37 82c0 84 28 112 90 112h118c62 0 90 -27 90 -112zM155 723c-10 0 -12 -2 -12 -33s2 -33 12 -33h85c10 0 12 2 12 33
s-2 33 -12 33h-85zM151 574c-10 0 -12 -2 -12 -36c0 -35 2 -37 12 -37h94c10 0 12 2 12 37c0 34 -2 36 -12 36h-94z" />
    <glyph glyph-name="uni2079" unicode="&#x2079;" horiz-adv-x="401" 
d="M145 516c0 -10 2 -12 12 -12h91c10 0 12 2 12 12v88c-26 -29 -51 -44 -124 -44c-63 0 -90 27 -90 90v70c0 62 27 90 90 90h129c62 0 90 -27 90 -90v-216c0 -62 -28 -90 -90 -90h-125c-63 0 -90 27 -90 90v27h95v-15zM260 708c0 10 -2 12 -12 12h-96c-10 0 -12 -2 -12 -12
v-56c0 -10 2 -12 12 -12c63 0 87 6 108 13v55z" />
    <glyph glyph-name="asterisk" unicode="*" horiz-adv-x="444" 
d="M265 502l110 -101l-92 -67l-62 137l-61 -136l-93 66l110 102l-148 16l34 109l132 -75l-30 147h114l-30 -147l130 74l36 -108z" />
    <glyph glyph-name="backslash" unicode="\" horiz-adv-x="546" 
d="M166 770l354 -840h-140l-354 840h140z" />
    <glyph glyph-name="periodcentered" unicode="&#xb7;" horiz-adv-x="274" 
d="M217 411v-156h-160v156h160z" />
    <glyph glyph-name="bullet" unicode="&#x2022;" horiz-adv-x="452" 
d="M226 250c-84 0 -112 28 -112 112s28 112 112 112s112 -28 112 -112s-28 -112 -112 -112z" />
    <glyph glyph-name="colon" unicode=":" horiz-adv-x="274" 
d="M217 540v-156h-160v156h160zM217 156v-156h-160v156h160z" />
    <glyph glyph-name="comma" unicode="," horiz-adv-x="274" 
d="M217 156v-108c0 -39 -13 -64 -48 -104l-69 -78h-56l77 134h-64v156h160z" />
    <glyph glyph-name="ellipsis" unicode="&#x2026;" horiz-adv-x="714" 
d="M217 156v-156h-160v156h160zM437 156v-156h-160v156h160zM657 156v-156h-160v156h160z" />
    <glyph glyph-name="exclam" unicode="!" horiz-adv-x="300" 
d="M234 700l-31 -457h-106l-31 457h168zM230 156v-156h-160v156h160z" />
    <glyph glyph-name="exclamdown" unicode="&#xa1;" horiz-adv-x="300" 
d="M70 384v156h160v-156h-160zM66 -160l31 457h106l31 -457h-168z" />
    <glyph glyph-name="numbersign" unicode="#" horiz-adv-x="816" 
d="M771 431h-126l-43 -130h100v-126h-142l-59 -175h-135l59 175h-154l-59 -175h-135l59 175h-91v126h133l43 130h-107v126h149l48 143h135l-48 -143h154l48 143h135l-48 -143h84v-126zM467 301l43 130h-154l-43 -130h154z" />
    <glyph glyph-name="period" unicode="." horiz-adv-x="274" 
d="M217 156v-156h-160v156h160z" />
    <glyph glyph-name="question" unicode="?" horiz-adv-x="588" 
d="M401 700c95 0 140 -45 140 -140v-111c0 -64 -62 -94 -142 -142l-40 -24c-26 -16 -34 -22 -34 -34v-35h-144v65c0 60 69 97 144 144l38 24c27 17 34 23 34 34v67c0 15 -5 20 -20 20h-184c-15 0 -20 -5 -20 -20v-68h-144v80c0 95 45 140 140 140h232zM181 144h144v-144
h-144v144z" />
    <glyph glyph-name="questiondown" unicode="&#xbf;" horiz-adv-x="588" 
d="M407 396h-144v144h144v-144zM187 -160c-95 0 -140 45 -140 140v111c0 64 62 94 142 142l40 24c26 16 34 22 34 34v35h144v-65c0 -60 -69 -97 -144 -144l-38 -24c-27 -17 -34 -23 -34 -34v-67c0 -15 5 -20 20 -20h184c15 0 20 5 20 20v68h144v-80
c0 -95 -45 -140 -140 -140h-232z" />
    <glyph glyph-name="quotedbl" unicode="&#x22;" horiz-adv-x="480" 
d="M61 700h156l-36 -256h-84zM263 700h156l-36 -256h-84z" />
    <glyph glyph-name="quotesingle" unicode="'" horiz-adv-x="278" 
d="M61 700h156l-36 -256h-84z" />
    <glyph glyph-name="semicolon" unicode=";" horiz-adv-x="274" 
d="M217 540v-156h-160v156h160zM217 156v-108c0 -39 -13 -64 -48 -104l-69 -78h-56l77 134h-64v156h160z" />
    <glyph glyph-name="slash" unicode="/" horiz-adv-x="546" 
d="M380 770h140l-354 -840h-140z" />
    <glyph glyph-name="underscore" unicode="_" horiz-adv-x="600" 
d="M18 -46h564v-124h-564v124z" />
    <glyph glyph-name="numbersign.tf" 
d="M642 437h-102l-47 -142h80v-126h-123l-56 -169h-135l56 169h-96l-56 -169h-135l56 169h-66v126h109l47 142h-87v126h129l46 137h135l-46 -137h96l46 137h135l-46 -137h60v-126zM358 295l47 142h-96l-47 -142h96z" />
    <glyph glyph-name="braceleft" unicode="{" horiz-adv-x="476" 
d="M300 424c0 -48 -28 -75 -54 -92c26 -17 54 -44 54 -92v-194c0 -15 5 -20 20 -20h91v-132h-115c-95 0 -140 45 -140 140v216c0 15 -5 20 -20 20h-81v124h81c15 0 20 5 20 20v210c0 95 45 140 140 140h115v-132h-91c-15 0 -20 -5 -20 -20v-188z" />
    <glyph glyph-name="braceright" unicode="}" horiz-adv-x="476" 
d="M176 424v188c0 15 -5 20 -20 20h-91v132h115c95 0 140 -45 140 -140v-210c0 -15 5 -20 20 -20h81v-124h-81c-15 0 -20 -5 -20 -20v-216c0 -95 -45 -140 -140 -140h-115v132h91c15 0 20 5 20 20v194c0 48 28 75 54 92c-26 17 -54 44 -54 92z" />
    <glyph glyph-name="bracketleft" unicode="[" horiz-adv-x="405" 
d="M340 632h-101v-606h101v-132h-245v870h245v-132z" />
    <glyph glyph-name="bracketright" unicode="]" horiz-adv-x="405" 
d="M65 632v132h245v-870h-245v132h101v606h-101z" />
    <glyph glyph-name="parenleft" unicode="(" horiz-adv-x="415" 
d="M350 632h-91c-15 0 -20 -5 -20 -20v-566c0 -15 5 -20 20 -20h91v-132h-115c-95 0 -140 45 -140 140v590c0 95 45 140 140 140h115v-132z" />
    <glyph glyph-name="parenright" unicode=")" horiz-adv-x="415" 
d="M65 632v132h115c95 0 140 -45 140 -140v-590c0 -95 -45 -140 -140 -140h-115v132h91c15 0 20 5 20 20v566c0 15 -5 20 -20 20h-91z" />
    <glyph glyph-name="emdash" unicode="&#x2014;" horiz-adv-x="826" 
d="M63 393h700v-128h-700v128z" />
    <glyph glyph-name="endash" unicode="&#x2013;" horiz-adv-x="586" 
d="M63 393h460v-128h-460v128z" />
    <glyph glyph-name="hyphen" unicode="-" horiz-adv-x="466" 
d="M63 393h340v-128h-340v128z" />
    <glyph glyph-name="guillemotleft" unicode="&#xab;" horiz-adv-x="558" 
d="M155 509h144l-147 -208l147 -207h-144l-128 181v52zM379 509h144l-147 -208l147 -207h-144l-128 181v52z" />
    <glyph glyph-name="guillemotright" unicode="&#xbb;" horiz-adv-x="558" 
d="M179 509l128 -182v-52l-128 -181h-144l147 207l-147 208h144zM403 509l128 -182v-52l-128 -181h-144l147 207l-147 208h144z" />
    <glyph glyph-name="guilsinglleft" unicode="&#x2039;" horiz-adv-x="334" 
d="M155 509h144l-147 -208l147 -207h-144l-128 181v52z" />
    <glyph glyph-name="guilsinglright" unicode="&#x203a;" horiz-adv-x="334" 
d="M179 509l128 -182v-52l-128 -181h-144l147 207l-147 208h144z" />
    <glyph glyph-name="quotedblbase" unicode="&#x201e;" horiz-adv-x="480" 
d="M217 156v-108c0 -39 -13 -64 -48 -104l-69 -78h-56l77 134h-64v156h160zM423 156v-108c0 -39 -13 -64 -48 -104l-69 -78h-56l77 134h-64v156h160z" />
    <glyph glyph-name="quotedblleft" unicode="&#x201c;" horiz-adv-x="480" 
d="M57 410v108c0 39 13 64 48 104l69 78h56l-77 -134h64v-156h-160zM263 410v108c0 39 13 64 48 104l69 78h56l-77 -134h64v-156h-160z" />
    <glyph glyph-name="quotedblright" unicode="&#x201d;" horiz-adv-x="480" 
d="M217 700v-108c0 -39 -13 -64 -48 -104l-69 -78h-56l77 134h-64v156h160zM423 700v-108c0 -39 -13 -64 -48 -104l-69 -78h-56l77 134h-64v156h160z" />
    <glyph glyph-name="quoteleft" unicode="&#x2018;" horiz-adv-x="274" 
d="M57 410v108c0 39 13 64 48 104l69 78h56l-77 -134h64v-156h-160z" />
    <glyph glyph-name="quoteright" unicode="&#x2019;" horiz-adv-x="274" 
d="M217 700v-108c0 -39 -13 -64 -48 -104l-69 -78h-56l77 134h-64v156h160z" />
    <glyph glyph-name="quotesinglbase" unicode="&#x201a;" horiz-adv-x="274" 
d="M217 156v-108c0 -39 -13 -64 -48 -104l-69 -78h-56l77 134h-64v156h160z" />
    <glyph glyph-name="cent" unicode="&#xa2;" horiz-adv-x="608" 
d="M411 414v54c0 15 -5 20 -20 20h-34v-270h34c15 0 20 5 20 20v54h130v-56c0 -95 -45 -140 -140 -140h-36v-96h-114v96h-42c-95 0 -140 45 -140 140v234c0 95 45 140 140 140h42v90h114v-90h36c95 0 140 -45 140 -140v-56h-130zM259 488h-40c-15 0 -20 -5 -20 -20v-230
c0 -15 5 -20 20 -20h40v270z" />
    <glyph glyph-name="currency" unicode="&#xa4;" horiz-adv-x="625" 
d="M519 278c0 -19 -2 -36 -5 -51l82 -82l-85 -86l-84 84c-14 -3 -30 -5 -48 -5h-133c-18 0 -34 2 -48 5l-84 -84l-85 86l82 82c-3 15 -5 32 -5 51v160c0 18 2 34 5 48l-82 82l85 86l81 -81c15 3 32 5 51 5h133c19 0 36 -2 51 -5l81 81l85 -86l-82 -82c3 -14 5 -30 5 -48
v-160zM397 272v172c0 15 -5 20 -20 20h-129c-15 0 -20 -5 -20 -20v-172c0 -15 5 -20 20 -20h129c15 0 20 5 20 20z" />
    <glyph glyph-name="dollar" unicode="$" horiz-adv-x="630" 
d="M432 400c90 -18 144 -52 144 -202c0 -153 -45 -198 -140 -198h-65v-102h-115v102h-62c-95 0 -140 45 -140 198v32h140v-38c0 -57 5 -62 20 -62h56v164l-68 14c-90 18 -144 52 -144 198c0 149 45 194 140 194h58v102h115v-102h53c95 0 140 -45 140 -194v-28h-140v34
c0 53 -5 58 -20 58h-47v-155zM236 440l34 -7v137h-48c-15 0 -20 -5 -20 -58c0 -60 8 -67 34 -72zM412 130c15 0 20 5 20 62c0 64 -8 71 -34 76l-41 8v-146h55z" />
    <glyph glyph-name="Euro" unicode="&#x20ac;" horiz-adv-x="685" 
d="M627 446h-144v102c0 15 -5 20 -20 20h-184c-15 0 -20 -5 -20 -20v-94h178v-71h-178v-66h178v-71h-178v-94c0 -15 5 -20 20 -20h184c15 0 20 5 20 20v102h144v-114c0 -95 -45 -140 -140 -140h-232c-95 0 -140 45 -140 140v106h-78v71h78v66h-78v71h78v106
c0 95 45 140 140 140h232c95 0 140 -45 140 -140v-114z" />
    <glyph glyph-name="florin" unicode="&#x192;" horiz-adv-x="488" 
d="M321 568c-15 0 -20 -5 -20 -20v-100h131v-126h-131v-182c0 -95 -45 -140 -140 -140h-115v132h91c15 0 20 5 20 20v170h-104v126h104v112c0 95 45 140 140 140h145v-132h-121z" />
    <glyph glyph-name="sterling" unicode="&#xa3;" horiz-adv-x="651" 
d="M454 216h134v-216h-551v132h62c15 0 20 5 20 20v131h-82v130h82v147c0 95 45 140 140 140h185c95 0 140 -45 140 -140v-92h-144v80c0 15 -5 20 -20 20h-137c-15 0 -20 -5 -20 -20v-135h144v-130h-144v-151h191v84z" />
    <glyph glyph-name="yen" unicode="&#xa5;" horiz-adv-x="720" 
d="M700 582h-78l-113 -204h76v-70h-115l-24 -44h139v-70h-153v-76h90v-118h-324v118h90v76h-153v70h139l-24 44h-115v70h76l-113 204h-78v118h282v-118h-50l109 -200l109 200h-50v118h280v-118z" />
    <glyph glyph-name="cent.tf" 
d="M440 414v54c0 15 -5 20 -20 20h-34v-270h34c15 0 20 5 20 20v54h130v-56c0 -95 -45 -140 -140 -140h-36v-96h-114v96h-42c-95 0 -140 45 -140 140v234c0 95 45 140 140 140h42v90h114v-90h36c95 0 140 -45 140 -140v-56h-130zM288 488h-40c-15 0 -20 -5 -20 -20v-230
c0 -15 5 -20 20 -20h40v270z" />
    <glyph glyph-name="currency.tf" 
d="M537 278c0 -19 -2 -36 -5 -51l82 -82l-85 -86l-84 84c-14 -3 -30 -5 -48 -5h-133c-18 0 -34 2 -48 5l-84 -84l-85 86l82 82c-3 15 -5 32 -5 51v160c0 18 2 34 5 48l-82 82l85 86l81 -81c15 3 32 5 51 5h133c19 0 36 -2 51 -5l81 81l85 -86l-82 -82c3 -14 5 -30 5 -48
v-160zM415 272v172c0 15 -5 20 -20 20h-129c-15 0 -20 -5 -20 -20v-172c0 -15 5 -20 20 -20h129c15 0 20 5 20 20z" />
    <glyph glyph-name="dollar.tf" 
d="M449 400c90 -18 144 -52 144 -202c0 -153 -45 -198 -140 -198h-67v-102h-115v102h-64c-95 0 -140 45 -140 198v32h140v-38c0 -57 5 -62 20 -62h58v164l-70 14c-90 18 -144 52 -144 198c0 149 45 194 140 194h60v102h115v-102h55c95 0 140 -45 140 -194v-28h-140v34
c0 53 -5 58 -20 58h-49v-155zM249 440l36 -7v137h-50c-15 0 -20 -5 -20 -58c0 -60 8 -67 34 -72zM429 130c15 0 20 5 20 62c0 64 -8 71 -34 76l-43 9v-147h57z" />
    <glyph glyph-name="Euro.tf" 
d="M617 446h-144v102c0 15 -5 20 -20 20h-184c-15 0 -20 -5 -20 -20v-94h178v-71h-178v-66h178v-71h-178v-94c0 -15 5 -20 20 -20h184c15 0 20 5 20 20v102h144v-114c0 -95 -45 -140 -140 -140h-232c-95 0 -140 45 -140 140v106h-78v71h78v66h-78v71h78v106
c0 95 45 140 140 140h232c95 0 140 -45 140 -140v-114z" />
    <glyph glyph-name="florin.tf" 
d="M407 568c-15 0 -20 -5 -20 -20v-100h131v-126h-131v-182c0 -95 -45 -140 -140 -140h-115v132h91c15 0 20 5 20 20v170h-104v126h104v112c0 95 45 140 140 140h145v-132h-121z" />
    <glyph glyph-name="sterling.tf" 
d="M460 216h134v-216h-551v132h62c15 0 20 5 20 20v131h-82v130h82v147c0 95 45 140 140 140h185c95 0 140 -45 140 -140v-92h-144v80c0 15 -5 20 -20 20h-137c-15 0 -20 -5 -20 -20v-135h144v-130h-144v-151h191v84z" />
    <glyph glyph-name="yen.tf" 
d="M670 582h-78l-114 -204h77v-70h-116l-24 -44h140v-70h-153v-76h90v-118h-324v118h90v76h-153v70h140l-24 44h-116v70h77l-114 204h-78v118h282v-118h-49l108 -198l108 198h-49v118h280v-118z" />
    <glyph glyph-name="asciitilde" unicode="~" horiz-adv-x="532" 
d="M157 283c0 17 9 21 23 21c42 0 134 -46 189 -46c46 0 84 35 84 112v25h-82v-19c0 -14 -7 -21 -21 -21c-42 0 -123 46 -183 46c-46 0 -90 -35 -90 -112v-25h80v19z" />
    <glyph glyph-name="divide" unicode="&#xf7;" horiz-adv-x="532" 
d="M332 639v-132h-132v132h132zM48 303v134h436v-134h-436zM332 233v-132h-132v132h132z" />
    <glyph glyph-name="equal" unicode="=" horiz-adv-x="532" 
d="M68 542h396v-128h-396v128zM68 334h396v-128h-396v128z" />
    <glyph glyph-name="greater" unicode="&#x3e;" horiz-adv-x="532" 
d="M76 634v-124l262 -147l-262 -146v-124l392 215v110z" />
    <glyph glyph-name="infinity" unicode="&#x221e;" horiz-adv-x="854" 
d="M647 570c95 0 140 -45 140 -140v-134c0 -95 -45 -140 -140 -140h-93c-94 0 -117 49 -127 77c-10 -28 -33 -77 -127 -77h-93c-95 0 -140 45 -140 140v134c0 95 45 140 140 140h93c94 0 117 -49 127 -77c10 28 33 77 127 77h93zM317 286c15 0 20 5 20 20v114
c0 15 -5 20 -20 20h-110c-15 0 -20 -5 -20 -20v-114c0 -15 5 -20 20 -20h110zM667 420c0 15 -5 20 -20 20h-110c-15 0 -20 -5 -20 -20v-114c0 -15 5 -20 20 -20h110c15 0 20 5 20 20v114z" />
    <glyph glyph-name="less" unicode="&#x3c;" horiz-adv-x="532" 
d="M456 634l-392 -216v-110l392 -215v124l-262 146l262 147v124z" />
    <glyph glyph-name="minus" unicode="&#x2212;" horiz-adv-x="532" 
d="M68 303v134h396v-134h-396z" />
    <glyph glyph-name="multiply" unicode="&#xd7;" horiz-adv-x="532" 
d="M459 444l-110 -110l110 -111l-82 -82l-110 111l-111 -111l-82 82l111 111l-111 110l82 82l111 -110l110 110z" />
    <glyph glyph-name="notequal" unicode="&#x2260;" horiz-adv-x="532" 
d="M464 412h-136l-27 -76h163v-130h-210l-42 -115h-94l42 115h-92v130h139l27 76h-166v130h213l39 108h94l-39 -108h89v-130z" />
    <glyph glyph-name="percent" unicode="%" horiz-adv-x="644" 
d="M208 700c50 0 70 -20 70 -70v-136c0 -50 -20 -70 -70 -70h-86c-49 0 -70 21 -70 70v136c0 50 20 70 70 70h86zM426 700h116l-324 -700h-116zM205 614c0 14 -4 18 -18 18h-44c-14 0 -18 -4 -18 -18v-104c0 -14 4 -18 18 -18h44c14 0 18 4 18 18v104zM522 276
c50 0 70 -20 70 -70v-136c0 -50 -20 -70 -70 -70h-86c-49 0 -70 21 -70 70v136c0 50 20 70 70 70h86zM519 190c0 14 -4 18 -18 18h-44c-14 0 -18 -4 -18 -18v-104c0 -14 4 -18 18 -18h44c14 0 18 4 18 18v104z" />
    <glyph glyph-name="perthousand" unicode="&#x2030;" horiz-adv-x="910" 
d="M208 700c50 0 70 -20 70 -70v-136c0 -50 -20 -70 -70 -70h-86c-49 0 -70 21 -70 70v136c0 50 20 70 70 70h86zM426 700h116l-324 -700h-116zM205 614c0 14 -4 18 -18 18h-44c-14 0 -18 -4 -18 -18v-104c0 -14 4 -18 18 -18h44c14 0 18 4 18 18v104zM522 276
c50 0 70 -20 70 -70v-136c0 -50 -20 -70 -70 -70h-86c-49 0 -70 21 -70 70v136c0 50 20 70 70 70h86zM788 276c50 0 70 -20 70 -70v-136c0 -50 -20 -70 -70 -70h-86c-49 0 -70 21 -70 70v136c0 50 20 70 70 70h86zM519 190c0 14 -4 18 -18 18h-44c-14 0 -18 -4 -18 -18v-104
c0 -14 4 -18 18 -18h44c14 0 18 4 18 18v104zM785 190c0 14 -4 18 -18 18h-44c-14 0 -18 -4 -18 -18v-104c0 -14 4 -18 18 -18h44c14 0 18 4 18 18v104z" />
    <glyph glyph-name="plus" unicode="+" horiz-adv-x="532" 
d="M327 182h-122v127h-137v122h137v127h122v-127h137v-122h-137v-127z" />
    <glyph glyph-name="plusminus" unicode="&#xb1;" horiz-adv-x="532" 
d="M327 255h-122v127h-137v122h137v127h122v-127h137v-122h-137v-127zM68 80v120h396v-120h-396z" />
    <glyph glyph-name="bar" unicode="|" horiz-adv-x="376" 
d="M122 -216v983h132v-983h-132z" />
    <glyph glyph-name="brokenbar" unicode="&#xa6;" horiz-adv-x="376" 
d="M122 381v386h132v-386h-132zM254 170v-386h-132v386h132z" />
    <glyph glyph-name="at" unicode="@" horiz-adv-x="1003" 
d="M770 700c95 0 140 -45 140 -140v-373c0 -95 -45 -140 -140 -140h-180l-20 72c-25 -34 -59 -76 -148 -76c-101 0 -146 45 -146 140v174c0 95 45 140 146 140c89 0 123 -42 148 -76l20 72h120v-370h58c33 0 40 12 40 66v377c0 27 -11 38 -38 38h-537c-27 0 -38 -11 -38 -38
v-592c0 -27 11 -38 38 -38h511v-96h-511c-95 0 -140 45 -140 140v580c0 95 45 140 140 140h537zM570 342c-30 21 -65 39 -120 39c-28 0 -34 -6 -34 -24v-174c0 -18 6 -24 34 -24c55 0 90 18 120 39v144z" />
    <glyph glyph-name="ampersand" unicode="&#x26;" horiz-adv-x="690" 
d="M586 140c0 -95 -45 -140 -140 -140h-234c-95 0 -140 45 -140 195c0 100 21 139 71 163c-46 27 -63 63 -63 155c0 142 45 187 140 187h192c95 0 140 -45 140 -140v-68h-144v58c0 15 -5 20 -20 20h-144c-15 0 -20 -5 -20 -74s5 -74 20 -74h414v-128h-72v-154zM236 294
c-15 0 -20 -5 -20 -82s5 -82 20 -82h186c15 0 20 5 20 20v144h-206z" />
    <glyph glyph-name="paragraph" unicode="&#xb6;" horiz-adv-x="921" 
d="M849 700v-118h-78v-582h-144v564h-88v-564h-144v246h-190c-95 0 -140 45 -140 140v174c0 95 45 140 140 140h644z" />
    <glyph glyph-name="copyright" unicode="&#xa9;" horiz-adv-x="871" 
d="M638 700c95 0 140 -45 140 -140v-420c0 -95 -45 -140 -140 -140h-405c-95 0 -140 45 -140 140v420c0 95 45 140 140 140h405zM686 562c0 36 -16 52 -52 52h-397c-36 0 -52 -16 -52 -52v-424c0 -36 16 -52 52 -52h397c36 0 52 16 52 52v424zM504 568
c70 0 102 -32 102 -102v-68h-104v55c0 15 -5 20 -20 20h-92c-15 0 -20 -5 -20 -20v-206c0 -15 5 -20 20 -20h92c15 0 20 5 20 20v55h104v-68c0 -70 -32 -102 -102 -102h-136c-70 0 -102 32 -102 102v232c0 70 32 102 102 102h136z" />
    <glyph glyph-name="registered" unicode="&#xae;" horiz-adv-x="388" 
d="M294 700c44 0 64 -20 64 -64v-242c0 -44 -20 -64 -64 -64h-200c-44 0 -64 20 -64 64v242c0 44 20 64 64 64h200zM321 391v248c0 19 -7 26 -26 26h-202c-19 0 -26 -7 -26 -26v-248c0 -19 7 -26 26 -26h202c19 0 26 7 26 26zM239 491l22 -52h30v-33h-57l-35 86h-40v-53h20
v-33h-78v33h20v152h-20v33h129c30 0 43 -13 43 -43v-47c0 -27 -10 -40 -34 -43zM160 527h65c7 0 10 2 10 10v42c0 7 -2 10 -10 10h-65v-62z" />
    <glyph glyph-name="section" unicode="&#xa7;" horiz-adv-x="561" 
d="M353 564c0 15 -5 20 -20 20h-104c-15 0 -20 -5 -20 -40c0 -32 6 -39 18 -41l159 -26c70 -11 116 -36 116 -163c0 -92 -21 -118 -41 -137c18 -15 34 -31 34 -99c0 -127 -45 -172 -140 -172h-156c-95 0 -140 45 -140 140v41h136v-39c0 -15 5 -20 20 -20h124
c15 0 20 5 20 44c0 35 -6 42 -18 44l-159 26c-77 13 -116 46 -116 159c0 90 20 115 45 137c-20 16 -38 33 -38 97c0 120 45 165 140 165h136c95 0 140 -45 140 -140v-28h-136v32zM345 232c13 -2 21 5 21 66c0 60 -6 67 -18 69l-124 20c-14 2 -22 -4 -22 -65
c0 -60 6 -68 18 -70z" />
    <glyph glyph-name="trademark" unicode="&#x2122;" horiz-adv-x="820" 
d="M334 700v-135h-65v65h-50v-230h50v-60h-175v60h50v230h-49v-65h-65v135h304zM790 640h-40v-240h40v-60h-149v60h40v168l-77 -173h-49l-77 173v-168h40v-60h-149v60h40v240h-40v60h122l88 -204l90 204h121v-60z" />
    <glyph glyph-name="degree" unicode="&#xb0;" horiz-adv-x="346" 
d="M129 488c-41 0 -60 19 -60 60v92c0 41 19 60 60 60h88c41 0 60 -19 60 -60v-92c0 -41 -19 -60 -60 -60h-88zM149 646c-12 0 -16 -4 -16 -16v-72c0 -12 4 -16 16 -16h48c12 0 16 4 16 16v72c0 12 -4 16 -16 16h-48z" />
    <glyph glyph-name="asciicircum" unicode="^" horiz-adv-x="736" 
d="M78 268l216 432h148l216 -432h-146l-144 288l-144 -288h-146z" />
    <glyph glyph-name="dagger" unicode="&#x2020;" horiz-adv-x="398" 
d="M366 540v-120h-104v-420h-126v420h-104v120h104v160h126v-160h104z" />
    <glyph glyph-name="daggerdbl" unicode="&#x2021;" horiz-adv-x="398" 
d="M366 420h-104v-120h104v-120h-104v-180h-126v180h-104v120h104v120h-104v120h104v160h126v-160h104v-120z" />
    <glyph glyph-name="ampersand.ss01" horiz-adv-x="690" 
d="M658 422v-128h-72v-154c0 -95 -45 -140 -140 -140h-234c-95 0 -140 45 -140 140v110c0 47 21 86 71 108c-46 25 -63 61 -63 108v94c0 95 45 140 140 140h192c95 0 140 -45 140 -140v-68h-144v58c0 15 -5 20 -20 20h-144c-15 0 -20 -5 -20 -20v-108c0 -15 5 -20 20 -20
h414zM442 294h-206c-15 0 -20 -5 -20 -20v-124c0 -15 5 -20 20 -20h186c15 0 20 5 20 20v144z" />
    <glyph glyph-name="uni0326" unicode="&#x326;" horiz-adv-x="0" 
d="M-102 -70v-108c0 -29 -24 -63 -48 -94l-59 -78h-56l77 134h-54v146h140z" />
    <glyph glyph-name="acute" unicode="&#xb4;" horiz-adv-x="439" 
d="M357 910l-149 -144h-116l90 144h175z" />
    <glyph glyph-name="breve" unicode="&#x2d8;" horiz-adv-x="642" 
d="M440 901v-55c0 -55 -25 -80 -80 -80h-78c-55 0 -80 25 -80 80v55h84v-43c0 -14 4 -18 18 -18h34c14 0 18 4 18 18v43h84z" />
    <glyph glyph-name="caron" unicode="&#x2c7;" horiz-adv-x="684" 
d="M152 896l130 -130h120l130 130h-129l-61 -63l-61 63h-129z" />
    <glyph glyph-name="cedilla" unicode="&#xb8;" horiz-adv-x="589" 
d="M346 0v-73c0 -74 -32 -94 -94 -94h-75l-50 78h95c15 0 20 5 20 20v69h104z" />
    <glyph glyph-name="circumflex" unicode="&#x2c6;" horiz-adv-x="684" 
d="M152 766h129l61 63l61 -63h129l-130 130h-120z" />
    <glyph glyph-name="dieresis" unicode="&#xa8;" horiz-adv-x="664" 
d="M296 894v-128h-130v128h130zM498 894v-128h-130v128h130z" />
    <glyph glyph-name="dotaccent" unicode="&#x2d9;" horiz-adv-x="462" 
d="M296 894v-128h-130v128h130z" />
    <glyph glyph-name="grave" unicode="`" horiz-adv-x="439" 
d="M82 910l149 -144h116l-90 144h-175z" />
    <glyph glyph-name="hungarumlaut" unicode="&#x2dd;" horiz-adv-x="774" 
d="M279 911h134l-115 -145h-134zM476 911h134l-115 -145h-134z" />
    <glyph glyph-name="macron" unicode="&#xaf;" horiz-adv-x="636" 
d="M172 888h276v-112h-276v112z" />
    <glyph glyph-name="ogonek" unicode="&#x2db;" horiz-adv-x="408" 
d="M227 -61c0 -18 12 -26 32 -26h39v-93h-68c-67 0 -111 19 -111 79c0 52 33 82 57 101h103c-41 -23 -52 -44 -52 -61z" />
    <glyph glyph-name="ring" unicode="&#x2da;" horiz-adv-x="368" 
d="M148 766c-42 0 -60 18 -60 60v60c0 42 18 60 60 60h72c42 0 60 -18 60 -60v-60c0 -42 -18 -60 -60 -60h-72zM162 890c-10 0 -12 -2 -12 -12v-44c0 -10 2 -12 12 -12h44c10 0 12 2 12 12v44c0 10 -2 12 -12 12h-44z" />
    <glyph glyph-name="tilde" unicode="&#x2dc;" horiz-adv-x="634" 
d="M227 783c0 17 9 21 23 21c42 0 94 -46 149 -46c46 0 78 35 78 112v25h-76v-19c0 -14 -7 -21 -21 -21c-42 0 -83 46 -143 46c-46 0 -84 -35 -84 -112v-25h74v19z" />
    </font>
</defs>
</svg>
